<?xml version="1.0" encoding="utf-8"?>
<!-- Generator: Adobe Illustrator 16.0.0, SVG Export Plug-In . SVG Version: 6.00 Build 0)  -->
<!DOCTYPE svg PUBLIC "-//W3C//DTD SVG 1.1//EN" "http://www.w3.org/Graphics/SVG/1.1/DTD/svg11.dtd">
<svg version="1.1" xmlns="http://www.w3.org/2000/svg" xmlns:xlink="http://www.w3.org/1999/xlink" x="0px" y="0px"
	 width="94.289px" height="109.935px" viewBox="0 0 94.289 109.935" enable-background="new 0 0 94.289 109.935"
	 xml:space="preserve">
<g id="weatheract">
	<path id="w" fill="#030104" d="M11.103,109.797H8.666l-1.367-5.303c-0.05-0.188-0.137-0.579-0.259-1.17
		c-0.122-0.591-0.192-0.988-0.21-1.191c-0.028,0.249-0.097,0.648-0.207,1.198c-0.111,0.55-0.196,0.942-0.255,1.177l-1.361,5.29
		H2.575L0,99.702h2.105l1.292,5.509c0.225,1.018,0.389,1.9,0.49,2.645c0.028-0.263,0.091-0.668,0.19-1.219
		c0.099-0.549,0.192-0.976,0.279-1.28l1.471-5.655h2.023l1.471,5.655c0.064,0.253,0.145,0.64,0.242,1.16
		c0.096,0.521,0.17,0.967,0.221,1.34c0.046-0.359,0.12-0.807,0.221-1.343c0.102-0.537,0.194-0.97,0.277-1.302l1.284-5.509h2.105
		L11.103,109.797z"/>
	<path id="e_1_" fill="#030104" d="M20.756,109.797h-5.814V99.702h5.814v1.753h-3.674v2.216H20.5v1.754h-3.418v2.603h3.674V109.797z
		"/>
	<path id="a_1_" fill="#030104" d="M29.042,109.797l-0.732-2.403h-3.68l-0.732,2.403h-2.307l3.563-10.137h2.617l3.577,10.137H29.042
		z M27.799,105.599c-0.676-2.177-1.058-3.409-1.143-3.694s-0.146-0.511-0.183-0.676c-0.152,0.589-0.587,2.046-1.305,4.371H27.799z"
		/>
	<path id="t_1_" fill="#030104" d="M36.514,109.797h-2.141v-8.313h-2.741v-1.781h7.623v1.781h-2.741V109.797z"/>
	<path id="h" fill="#030104" d="M49.081,109.797h-2.134v-4.357h-3.998v4.357h-2.141V99.702h2.141v3.956h3.998v-3.956h2.134V109.797z
		"/>
	<path id="e" fill="#030104" d="M57.443,109.797h-5.814V99.702h5.814v1.753h-3.674v2.216h3.418v1.754h-3.418v2.603h3.674V109.797z"
		/>
	<path id="r" fill="#030104" d="M61.689,105.923v3.874h-2.141V99.702h2.942c1.372,0,2.387,0.249,3.045,0.749
		c0.658,0.5,0.988,1.258,0.988,2.275c0,0.594-0.164,1.122-0.491,1.585c-0.327,0.462-0.79,0.825-1.387,1.087
		c1.519,2.27,2.508,3.736,2.969,4.398h-2.375l-2.41-3.874H61.689z M61.689,104.183h0.691c0.677,0,1.176-0.113,1.498-0.338
		s0.483-0.58,0.483-1.063c0-0.479-0.165-0.819-0.494-1.022c-0.329-0.202-0.839-0.304-1.529-0.304h-0.649V104.183z"/>
	<path id="a" fill="#030104" d="M75.065,109.797l-0.732-2.403h-3.68l-0.732,2.403h-2.307l3.563-10.137h2.617l3.577,10.137H75.065z
		 M73.822,105.599c-0.677-2.177-1.058-3.409-1.143-3.694c-0.085-0.286-0.146-0.511-0.183-0.676
		c-0.152,0.589-0.587,2.046-1.305,4.371H73.822z"/>
	<path id="c" fill="#030104" d="M82.929,101.338c-0.806,0-1.429,0.303-1.871,0.908c-0.441,0.605-0.662,1.449-0.662,2.531
		c0,2.251,0.845,3.377,2.533,3.377c0.709,0,1.567-0.177,2.576-0.532v1.795c-0.828,0.345-1.754,0.518-2.776,0.518
		c-1.468,0-2.592-0.445-3.369-1.336c-0.778-0.891-1.167-2.169-1.167-3.835c0-1.05,0.19-1.969,0.573-2.759
		c0.382-0.789,0.931-1.395,1.646-1.816c0.716-0.421,1.555-0.631,2.517-0.631c0.98,0,1.966,0.237,2.957,0.711l-0.692,1.74
		c-0.378-0.179-0.757-0.335-1.139-0.47C83.673,101.405,83.298,101.338,82.929,101.338z"/>
	<path id="t" fill="#030104" d="M91.547,109.797h-2.142v-8.313h-2.74v-1.781h7.623v1.781h-2.741V109.797z"/>
</g>
<g id="Capa_4">
	<circle fill="#FFFFFF" stroke="#030104" stroke-width="1.8" stroke-miterlimit="10" cx="50.324" cy="36.173" r="9.545"/>
	<circle fill="#FEEE00" stroke="#030104" stroke-width="1.8" stroke-miterlimit="10" cx="20.69" cy="19.471" r="10.069"/>
	
		<line fill="#FEEE00" stroke="#030104" stroke-width="1.8" stroke-linecap="round" stroke-linejoin="round" stroke-miterlimit="10" x1="12.952" y1="6.557" x2="10.797" y2="3.01"/>
	
		<line fill="#FEEE00" stroke="#030104" stroke-width="1.8" stroke-linecap="round" stroke-linejoin="round" stroke-miterlimit="10" x1="23.668" y1="5.075" x2="24.712" y2="0.8"/>
	
		<line fill="#FEEE00" stroke="#030104" stroke-width="1.8" stroke-linecap="round" stroke-linejoin="round" stroke-miterlimit="10" x1="32.842" y1="11.327" x2="36.448" y2="9.276"/>
	
		<line fill="#FEEE00" stroke="#030104" stroke-width="1.8" stroke-linecap="round" stroke-linejoin="round" stroke-miterlimit="10" x1="34.162" y1="22.738" x2="38.437" y2="23.783"/>
	
		<line fill="#FEEE00" stroke="#030104" stroke-width="1.8" stroke-linecap="round" stroke-linejoin="round" stroke-miterlimit="10" x1="27.324" y1="32.502" x2="29.478" y2="36.047"/>
	
		<line fill="#FEEE00" stroke="#030104" stroke-width="1.8" stroke-linecap="round" stroke-linejoin="round" stroke-miterlimit="10" x1="5.941" y1="15.847" x2="1.666" y2="14.802"/>
	<path fill="#4399D4" stroke="#030104" stroke-width="1.6" stroke-miterlimit="10" d="M10.782,84.217l4.491-5.484
		c0,0,8.15,6.966,17.227,6.751c4.661-0.111,11.941-2.47,17.752-6.873c5.506-4.173,9.453-10.397,17.021-10.635
		c15.553-0.487,25.439,12.722,25.439,12.722l-3.714,6.136c0,0-10.49-11.64-21.726-11.7c-11.235-0.06-13.247,17.63-34.78,17.442
		C10.958,92.387,10.782,84.217,10.782,84.217z"/>
	<path fill="#FFFFFF" stroke="#030104" stroke-width="1.8" stroke-miterlimit="10" d="M7.056,25
		c5.932-6.862,19.699,17.27,36.996,22.746c17.297,5.477,44.989-0.048,45.012,6.271c0.022,6.318-16.48,7.878-36.321,6.624
		c0,0-2.98,11.947-4.459,13.475S36.047,82.194,30.04,81.42c-6.008-0.774-7.907-1.877-7.907-1.877l9.45-24.414
		C31.583,55.129,1.124,31.862,7.056,25z"/>
</g>
</svg>
