<?xml version="1.0" encoding="utf-8"?>
<!-- Generator: Adobe Illustrator 16.0.0, SVG Export Plug-In . SVG Version: 6.00 Build 0)  -->
<!DOCTYPE svg PUBLIC "-//W3C//DTD SVG 1.1//EN" "http://www.w3.org/Graphics/SVG/1.1/DTD/svg11.dtd">
<svg version="1.1" id="Capa_1" xmlns="http://www.w3.org/2000/svg" xmlns:xlink="http://www.w3.org/1999/xlink" x="0px" y="0px"
	 width="79.233px" height="32.81px" viewBox="0 0 79.233 32.81" enable-background="new 0 0 79.233 32.81" xml:space="preserve">
<image overflow="visible" width="2048" height="2048" xlink:href="../../../../../../Desktop/instagram.png"  transform="matrix(0.016 0 0 0.016 46.4233 0)">
</image>
<g>
	<path fill-rule="evenodd" clip-rule="evenodd" fill="#FFFFFF" d="M10.107,4.411c0,1.398,0,2.625,0,3.933
		c-0.785,0-1.545-0.004-2.305,0.001C6.98,8.352,6.75,8.56,6.727,9.375c-0.021,0.724-0.004,1.451-0.004,2.251
		c1.135,0,2.235,0,3.398,0c-0.114,1.281-0.221,2.48-0.333,3.736c-1.009,0-1.992,0-3.048,0c0,3.703,0,7.348,0,11.038
		c-1.516,0-2.958,0-4.464,0c0-3.635,0-7.262,0-10.944c-0.786,0-1.508,0-2.275,0c0-1.279,0-2.503,0-3.797c0.723,0,1.459,0,2.266,0
		c0-0.932-0.006-1.794,0.002-2.657c0.004-0.443-0.013-0.896,0.065-1.329C2.645,5.956,3.616,4.882,5.354,4.65
		C6.902,4.445,8.484,4.483,10.107,4.411z"/>
</g>
<g>
	<path fill-rule="evenodd" clip-rule="evenodd" fill="#FFFFFF" d="M20.619,22.65c2.542,0.122,4.689-0.423,6.682-1.904
		c-2.045-0.339-3.497-1.293-4.236-3.275c0.6,0,1.131,0,1.663,0c-1.932-0.982-3.239-2.354-3.313-4.701
		c0.641,0.181,1.22,0.343,1.799,0.508c-1.784-1.832-2.323-3.83-1.158-6.282c2.569,2.948,5.695,4.619,9.568,4.878
		c0-0.396-0.013-0.769,0.002-1.14c0.075-1.868,0.947-3.261,2.602-4.101c1.634-0.828,3.3-0.728,4.748,0.371
		c0.725,0.549,1.311,0.585,2.054,0.249c0.509-0.23,1.035-0.426,1.723-0.507c-0.557,0.751-1.113,1.504-1.698,2.294
		c0.692-0.188,1.399-0.379,2.107-0.569c0.036,0.032,0.072,0.065,0.107,0.098c-0.542,0.576-1.044,1.194-1.638,1.708
		c-0.401,0.347-0.58,0.671-0.591,1.219c-0.124,6.203-4.263,11.464-10.088,12.868C27.478,25.201,23.439,24.571,20.619,22.65z"/>
</g>
</svg>
