<?xml version="1.0" encoding="utf-8"?>
<!-- Generator: Adobe Illustrator 16.0.0, SVG Export Plug-In . SVG Version: 6.00 Build 0)  -->
<!DOCTYPE svg PUBLIC "-//W3C//DTD SVG 1.1//EN" "http://www.w3.org/Graphics/SVG/1.1/DTD/svg11.dtd">
<svg version="1.1" xmlns="http://www.w3.org/2000/svg" xmlns:xlink="http://www.w3.org/1999/xlink" x="0px" y="0px" width="450px"
	 height="400px" viewBox="0 0 450 400" enable-background="new 0 0 450 400" xml:space="preserve">
<g id="Capa_2">
	<circle fill="#FFFFFF" stroke="#000000" stroke-width="7" stroke-miterlimit="10" cx="145.215" cy="149.763" r="80.878"/>
	
		<line fill="none" stroke="#000000" stroke-width="7" stroke-linecap="round" stroke-miterlimit="10" x1="142.5" y1="10" x2="142.5" y2="44"/>
	
		<line fill="none" stroke="#000000" stroke-width="7" stroke-linecap="round" stroke-miterlimit="10" x1="241.836" y1="50.292" x2="218.112" y2="72.703"/>
	
		<line fill="none" stroke="#000000" stroke-width="7" stroke-linecap="round" stroke-miterlimit="10" x1="281" y1="150.5" x2="247" y2="150.5"/>
	
		<line fill="none" stroke="#000000" stroke-width="7" stroke-linecap="round" stroke-miterlimit="10" x1="243.472" y1="249.348" x2="220.405" y2="226.28"/>
	
		<line fill="none" stroke="#000000" stroke-width="7" stroke-linecap="round" stroke-miterlimit="10" x1="142.5" y1="288" x2="142.5" y2="252"/>
	
		<line fill="none" stroke="#000000" stroke-width="7" stroke-linecap="round" stroke-miterlimit="10" x1="44.026" y1="249.348" x2="67.109" y2="226.28"/>
	
		<line fill="none" stroke="#000000" stroke-width="7" stroke-linecap="round" stroke-miterlimit="10" x1="8" y1="150.5" x2="42" y2="150.5"/>
	
		<line fill="none" stroke="#000000" stroke-width="7" stroke-linecap="round" stroke-miterlimit="10" x1="52.668" y1="51.526" x2="75.75" y2="74.604"/>
	<path d="M57.201,122.351c0,0,17.584-0.94,26.497-1.954c8.912-1.013,19.113-2.812,23.784-2.614
		c4.672,0.197,14.859,0.523,25.96,2.491c11.103,1.971,7.998,2.027,12.794,2.027c4.796,0,16.053-2.286,16.053-2.286
		s16.809-3.161,26.626-2.056c9.817,1.105,20.49,3.559,30.278,4.553c9.788,0.993,15.807,1.208,15.807,1.208v10.66
		c0,0-5.764-2.099-6.003,8.028c-0.24,10.125-2.395,38.763-36.649,34.565c-34.255-4.196-35.063-31.706-41.1-40.142
		c0,0,0.461-2.517-5.36-2.517s-5.759,2.924-5.759,2.924s-9.534,35.999-35.275,38.884c-25.741,2.883-37.384-2.358-42.59-33.736
		c0,0,1.096-10.621-5.298-9.84L57.201,122.351z"/>
</g>
<g id="text">
	<rect x="264.289" y="211.513" fill="none" width="180.711" height="183.02"/>
	<text transform="matrix(1 0 0 1 267.4878 248.3203)"><tspan x="0" y="0" font-family="'OpenSans-Bold'" font-size="48.4322">Perfect</tspan><tspan x="37.412" y="47.355" font-family="'OpenSans-Bold'" font-size="48.4322">DAY</tspan><tspan x="12.089" y="94.712" font-family="'OpenSans-Bold'" font-size="44.1271">for the </tspan><tspan x="-2.288" y="142.067" font-family="'OpenSans-Bold'" font-size="53.8136">Beach!</tspan></text>
</g>
</svg>
