<?xml version="1.0" encoding="utf-8"?>
<!-- Generator: Adobe Illustrator 16.0.0, SVG Export Plug-In . SVG Version: 6.00 Build 0)  -->
<!DOCTYPE svg PUBLIC "-//W3C//DTD SVG 1.1//EN" "http://www.w3.org/Graphics/SVG/1.1/DTD/svg11.dtd">
<svg version="1.1" id="Capa_1" xmlns="http://www.w3.org/2000/svg" xmlns:xlink="http://www.w3.org/1999/xlink" x="0px" y="0px"
	 width="450px" height="400px" viewBox="0 0 450 400" enable-background="new 0 0 450 400" xml:space="preserve">
<g id="Capa_2">
	<circle fill="#FFFFFF" stroke="#000000" stroke-width="7" stroke-miterlimit="10" cx="143.215" cy="145.763" r="80.878"/>
	
		<line fill="none" stroke="#000000" stroke-width="7" stroke-linecap="round" stroke-miterlimit="10" x1="140.5" y1="6" x2="140.5" y2="40"/>
	
		<line fill="none" stroke="#000000" stroke-width="7" stroke-linecap="round" stroke-miterlimit="10" x1="239.836" y1="46.292" x2="216.112" y2="68.703"/>
	
		<line fill="none" stroke="#000000" stroke-width="7" stroke-linecap="round" stroke-miterlimit="10" x1="279" y1="146.5" x2="245" y2="146.5"/>
	
		<line fill="none" stroke="#000000" stroke-width="7" stroke-linecap="round" stroke-miterlimit="10" x1="241.473" y1="245.348" x2="218.405" y2="222.279"/>
	
		<line fill="none" stroke="#000000" stroke-width="7" stroke-linecap="round" stroke-miterlimit="10" x1="140.5" y1="284" x2="140.5" y2="248"/>
	
		<line fill="none" stroke="#000000" stroke-width="7" stroke-linecap="round" stroke-miterlimit="10" x1="42.026" y1="245.348" x2="65.109" y2="222.279"/>
	
		<line fill="none" stroke="#000000" stroke-width="7" stroke-linecap="round" stroke-miterlimit="10" x1="6" y1="146.5" x2="40" y2="146.5"/>
	
		<line fill="none" stroke="#000000" stroke-width="7" stroke-linecap="round" stroke-miterlimit="10" x1="50.668" y1="47.526" x2="73.75" y2="70.604"/>
	<path d="M55.201,118.351c0,0,17.584-0.94,26.497-1.954c8.912-1.013,19.113-2.812,23.784-2.614
		c4.672,0.197,14.859,0.523,25.96,2.491c11.103,1.971,7.998,2.027,12.794,2.027c4.796,0,16.053-2.286,16.053-2.286
		s16.809-3.161,26.626-2.056s20.49,3.559,30.278,4.553C226.98,119.505,233,119.72,233,119.72v10.66c0,0-5.764-2.099-6.003,8.028
		c-0.24,10.125-2.396,38.763-36.649,34.565c-34.255-4.196-35.063-31.706-41.1-40.142c0,0,0.461-2.517-5.36-2.517
		c-5.821,0-5.759,2.924-5.759,2.924s-9.534,35.999-35.275,38.884c-25.741,2.883-37.384-2.358-42.59-33.736
		c0,0,1.096-10.621-5.298-9.84L55.201,118.351z"/>
</g>
<g>
	<path fill="#FFFFFF" d="M262.617,274.497c0,4.419-1.381,7.798-4.143,10.138c-2.762,2.342-6.688,3.512-11.779,3.512h-3.735v14.602
		h-8.705v-41.055h13.113c4.979,0,8.767,1.07,11.36,3.214C261.32,267.051,262.617,270.247,262.617,274.497z M242.96,281.012h2.864
		c2.678,0,4.681-0.529,6.009-1.585c1.329-1.059,1.994-2.6,1.994-4.62c0-2.041-0.558-3.548-1.67-4.521
		c-1.115-0.974-2.86-1.462-5.237-1.462h-3.96V281.012z"/>
	<path fill="#FFFFFF" d="M283.902,303.309c-5.055,0-9.004-1.395-11.852-4.184c-2.846-2.789-4.268-6.74-4.268-11.852
		c0-5.26,1.314-9.328,3.945-12.201c2.631-2.875,6.267-4.311,10.91-4.311c4.437,0,7.892,1.264,10.36,3.79
		c2.472,2.528,3.708,6.021,3.708,10.476v4.156H276.46c0.093,2.436,0.813,4.334,2.162,5.699c1.349,1.367,3.237,2.051,5.673,2.051
		c1.891,0,3.68-0.195,5.362-0.59c1.686-0.394,3.442-1.021,5.28-1.882v6.627c-1.5,0.75-3.101,1.308-4.804,1.671
		C288.434,303.127,286.355,303.309,283.902,303.309z M282.695,276.855c-1.815,0-3.239,0.574-4.27,1.729
		c-1.027,1.148-1.617,2.784-1.769,4.898h12.018c-0.036-2.114-0.588-3.75-1.655-4.898
		C285.953,277.432,284.51,276.855,282.695,276.855z"/>
	<path fill="#FFFFFF" d="M321.195,270.764c1.16,0,2.123,0.084,2.892,0.252l-0.646,8.031c-0.691-0.188-1.534-0.281-2.526-0.281
		c-2.733,0-4.862,0.701-6.39,2.106c-1.524,1.403-2.287,3.369-2.287,5.896v15.979h-8.565v-31.396h6.486l1.265,5.279h0.422
		c0.973-1.76,2.287-3.179,3.945-4.256C317.445,271.3,319.248,270.764,321.195,270.764z"/>
	<path fill="#FFFFFF" d="M347.143,277.782h-7.412v24.965h-8.564v-24.965h-4.719v-4.128l4.719-2.303v-2.305
		c0-3.574,0.879-6.186,2.641-7.834c1.758-1.646,4.577-2.471,8.451-2.471c2.958,0,5.59,0.439,7.893,1.32l-2.191,6.289
		c-1.723-0.543-3.312-0.812-4.773-0.812c-1.219,0-2.098,0.359-2.64,1.081c-0.544,0.719-0.813,1.642-0.813,2.766v1.966h7.412v6.431
		H347.143z"/>
	<path fill="#FFFFFF" d="M366.268,303.309c-5.055,0-9.004-1.395-11.853-4.184c-2.847-2.789-4.267-6.74-4.267-11.852
		c0-5.26,1.313-9.328,3.944-12.201c2.63-2.875,6.267-4.311,10.91-4.311c4.438,0,7.89,1.264,10.361,3.79
		c2.472,2.528,3.706,6.021,3.706,10.476v4.156h-20.246c0.094,2.436,0.812,4.334,2.162,5.699c1.348,1.367,3.238,2.051,5.672,2.051
		c1.892,0,3.679-0.195,5.363-0.59c1.686-0.394,3.444-1.021,5.279-1.882v6.627c-1.498,0.75-3.1,1.308-4.802,1.671
		C370.797,303.127,368.719,303.309,366.268,303.309z M365.061,276.855c-1.817,0-3.24,0.574-4.269,1.729
		c-1.032,1.148-1.62,2.784-1.771,4.898h12.019c-0.038-2.114-0.589-3.75-1.655-4.898
		C368.316,277.432,366.875,276.855,365.061,276.855z"/>
	<path fill="#FFFFFF" d="M398.785,303.309c-9.773,0-14.658-5.363-14.658-16.091c0-5.335,1.329-9.411,3.987-12.229
		c2.657-2.817,6.469-4.225,11.43-4.225c3.632,0,6.889,0.711,9.771,2.133l-2.526,6.627c-1.349-0.541-2.604-0.986-3.764-1.332
		c-1.16-0.348-2.321-0.521-3.481-0.521c-4.455,0-6.683,3.163-6.683,9.491c0,6.141,2.228,9.21,6.683,9.21
		c1.646,0,3.174-0.22,4.577-0.658c1.404-0.44,2.809-1.128,4.212-2.063v7.328c-1.386,0.881-2.783,1.488-4.198,1.824
		C402.721,303.143,400.938,303.309,398.785,303.309z"/>
	<path fill="#FFFFFF" d="M428.832,296.484c1.498,0,3.296-0.325,5.393-0.982v6.374c-2.135,0.956-4.756,1.433-7.862,1.433
		c-3.425,0-5.92-0.865-7.483-2.598c-1.562-1.732-2.345-4.328-2.345-7.791v-15.138h-4.103v-3.622l4.721-2.864l2.472-6.627h5.476
		v6.685h8.789v6.43H425.1v15.138c0,1.216,0.343,2.115,1.024,2.695C426.807,296.193,427.711,296.484,428.832,296.484z"/>
	<path fill="#FFFFFF" d="M235.79,325.536c0,5.271-1.5,9.31-4.502,12.113c-3,2.804-7.334,4.204-13,4.204h-9.069v-32.022h10.054
		c5.227,0,9.288,1.382,12.179,4.141C234.344,316.732,235.79,320.587,235.79,325.536z M228.736,325.711
		c0-6.876-3.037-10.316-9.112-10.316h-3.614v20.854h2.914C225.465,336.248,228.736,332.736,228.736,325.711z"/>
	<path fill="#FFFFFF" d="M262.029,341.854l-2.321-7.62h-11.674l-2.322,7.62h-7.313l11.302-32.152h8.3l11.35,32.152H262.029z
		 M258.088,328.538c-2.146-6.908-3.354-10.813-3.626-11.719c-0.271-0.905-0.464-1.621-0.581-2.147
		c-0.479,1.871-1.859,6.491-4.14,13.866H258.088z"/>
	<path fill="#FFFFFF" d="M283.344,323.018l6.68-13.187h7.316l-10.624,19.561v12.464h-6.745v-12.243l-10.623-19.78h7.358
		L283.344,323.018z"/>
	<path fill="#FFFFFF" d="M322.812,336.971c1.168,0,2.569-0.256,4.205-0.768v4.974c-1.664,0.744-3.709,1.117-6.133,1.117
		c-2.672,0-4.617-0.676-5.838-2.026c-1.219-1.352-1.828-3.378-1.828-6.077v-11.81h-3.197v-2.824l3.679-2.232l1.93-5.17h4.271v5.214
		h6.856v5.014H319.9v11.81c0,0.946,0.267,1.648,0.8,2.103C321.232,336.744,321.938,336.971,322.812,336.971z"/>
	<path fill="#FFFFFF" d="M354.223,329.566c0,3.986-1.051,7.104-3.154,9.354c-2.103,2.247-5.028,3.373-8.783,3.373
		c-2.35,0-4.424-0.516-6.221-1.546c-1.795-1.028-3.174-2.508-4.14-4.437c-0.964-1.927-1.444-4.175-1.444-6.745
		c0-4,1.043-7.11,3.133-9.329c2.087-2.221,5.021-3.33,8.806-3.33c2.351,0,4.422,0.512,6.22,1.532
		c1.797,1.021,3.176,2.489,4.141,4.401C353.741,324.755,354.223,326.997,354.223,329.566z M337.291,329.566
		c0,2.425,0.398,4.257,1.193,5.498c0.798,1.241,2.094,1.861,3.889,1.861c1.779,0,3.062-0.617,3.845-1.851
		c0.781-1.233,1.173-3.07,1.173-5.51c0-2.423-0.396-4.241-1.184-5.453c-0.789-1.214-2.082-1.818-3.877-1.818
		c-1.782,0-3.066,0.604-3.855,1.807C337.688,325.308,337.291,327.129,337.291,329.566z"/>
	<path fill="#FFFFFF" d="M384.078,323.87h12.704v16.604c-2.06,0.674-3.998,1.144-5.815,1.413c-1.816,0.271-3.678,0.405-5.574,0.405
		c-4.834,0-8.523-1.42-11.072-4.262c-2.547-2.838-3.821-6.917-3.821-12.232c0-5.171,1.479-9.199,4.435-12.092
		c2.957-2.892,7.058-4.335,12.299-4.335c3.287,0,6.455,0.655,9.509,1.97l-2.259,5.434c-2.336-1.168-4.768-1.752-7.293-1.752
		c-2.937,0-5.287,0.983-7.053,2.955c-1.768,1.973-2.65,4.623-2.65,7.952c0,3.476,0.713,6.129,2.136,7.962
		c1.425,1.832,3.493,2.748,6.211,2.748c1.414,0,2.854-0.146,4.313-0.438v-6.68h-6.066v-5.653H384.078z"/>
	<path fill="#FFFFFF" d="M433.471,325.8c0,5.301-1.313,9.375-3.942,12.222c-2.629,2.848-6.397,4.272-11.304,4.272
		c-4.905,0-8.674-1.426-11.302-4.272c-2.629-2.847-3.942-6.936-3.942-12.265c0-5.331,1.318-9.399,3.953-12.214
		c2.637-2.81,6.414-4.216,11.336-4.216s8.686,1.418,11.293,4.251C432.167,316.411,433.471,320.483,433.471,325.8z M410.1,325.8
		c0,3.577,0.679,6.271,2.037,8.081c1.356,1.812,3.387,2.717,6.088,2.717c5.417,0,8.127-3.599,8.127-10.798
		c0-7.214-2.692-10.818-8.082-10.818c-2.702,0-4.738,0.906-6.109,2.726C410.786,319.525,410.1,322.223,410.1,325.8z"/>
	<path fill="#FFFFFF" d="M240.988,371.143c0,6.659-1.65,11.779-4.954,15.355c-3.302,3.578-8.035,5.368-14.201,5.368
		c-6.163,0-10.896-1.79-14.199-5.368c-3.303-3.576-4.954-8.715-4.954-15.412c0-6.695,1.655-11.809,4.967-15.34
		s8.06-5.299,14.242-5.299c6.183,0,10.913,1.778,14.186,5.34C239.35,359.346,240.988,364.463,240.988,371.143z M211.624,371.143
		c0,4.494,0.854,7.881,2.558,10.154c1.708,2.274,4.258,3.413,7.651,3.413c6.808,0,10.209-4.523,10.209-13.567
		c0-9.062-3.384-13.597-10.154-13.597c-3.394,0-5.954,1.145-7.679,3.429C212.486,363.258,211.624,366.648,211.624,371.143z"/>
	<path fill="#FFFFFF" d="M270.463,391.315l-1.13-3.938h-0.438c-0.9,1.431-2.174,2.537-3.826,3.317
		c-1.651,0.779-3.531,1.171-5.643,1.171c-3.613,0-6.34-0.968-8.174-2.904c-1.835-1.937-2.751-4.719-2.751-8.352v-20.062h8.394
		v17.971c0,2.22,0.396,3.886,1.185,4.993c0.788,1.112,2.045,1.665,3.771,1.665c2.349,0,4.045-0.784,5.092-2.352
		c1.045-1.568,1.566-4.17,1.566-7.803v-14.476h8.395v30.769L270.463,391.315L270.463,391.315z"/>
	<path fill="#FFFFFF" d="M298.67,385.177c1.469,0,3.229-0.319,5.285-0.962v6.247c-2.094,0.937-4.661,1.404-7.705,1.404
		c-3.359,0-5.803-0.851-7.336-2.546c-1.532-1.698-2.298-4.243-2.298-7.638V366.85h-4.019v-3.551l4.625-2.808l2.42-6.493h5.367v6.55
		h8.613v6.302h-8.613v14.834c0,1.192,0.334,2.072,1.004,2.642C296.684,384.894,297.568,385.177,298.67,385.177z"/>
	<path fill="#FFFFFF" d="M331.639,382.179c0,3.154-1.098,5.559-3.289,7.209c-2.191,1.652-5.472,2.479-9.836,2.479
		c-2.24,0-4.148-0.153-5.726-0.454c-1.579-0.305-3.056-0.75-4.431-1.336v-6.936c1.56,0.733,3.314,1.349,5.27,1.845
		c1.953,0.494,3.675,0.741,5.159,0.741c3.046,0,4.569-0.882,4.569-2.642c0-0.661-0.201-1.197-0.605-1.608
		c-0.404-0.415-1.104-0.881-2.093-1.403c-0.99-0.523-2.312-1.134-3.964-1.831c-2.363-0.991-4.103-1.908-5.213-2.752
		c-1.111-0.844-1.918-1.811-2.424-2.902c-0.503-1.093-0.756-2.435-0.756-4.033c0-2.731,1.059-4.847,3.18-6.343
		c2.117-1.495,5.123-2.243,9.013-2.243c3.706,0,7.311,0.808,10.813,2.422l-2.531,6.055c-1.541-0.661-2.98-1.198-4.319-1.623
		c-1.341-0.423-2.706-0.632-4.101-0.632c-2.478,0-3.715,0.669-3.715,2.009c0,0.753,0.397,1.403,1.195,1.955
		c0.798,0.551,2.547,1.363,5.243,2.447c2.403,0.973,4.165,1.881,5.282,2.725c1.119,0.845,1.945,1.814,2.478,2.917
		C331.373,379.344,331.639,380.654,331.639,382.179z"/>
	<path fill="#FFFFFF" d="M337.831,352.593c0-2.731,1.522-4.1,4.567-4.1c3.047,0,4.569,1.367,4.569,4.1
		c0,1.304-0.383,2.317-1.143,3.042c-0.763,0.726-1.904,1.088-3.429,1.088C339.354,356.723,337.831,355.346,337.831,352.593z
		 M346.581,391.315h-8.394v-30.769h8.394V391.315z"/>
	<path fill="#FFFFFF" d="M365.131,391.866c-3.613,0-6.454-1.404-8.518-4.211c-2.062-2.811-3.094-6.696-3.094-11.669
		c0-5.046,1.049-8.978,3.148-11.792c2.1-2.816,4.995-4.227,8.684-4.227c3.869,0,6.824,1.506,8.86,4.515h0.272
		c-0.42-2.293-0.629-4.34-0.629-6.138v-9.853h8.418v42.822h-6.438l-1.625-3.99h-0.355
		C371.948,390.352,369.039,391.866,365.131,391.866z M368.074,385.177c2.148,0,3.722-0.623,4.721-1.871
		c1.001-1.246,1.545-3.366,1.639-6.354v-0.909c0-3.304-0.51-5.668-1.527-7.1s-2.674-2.146-4.967-2.146
		c-1.871,0-3.326,0.792-4.362,2.379c-1.035,1.588-1.554,3.896-1.554,6.924c0,3.026,0.521,5.296,1.567,6.81
		C364.636,384.421,366.131,385.177,368.074,385.177z"/>
	<path fill="#FFFFFF" d="M404.98,391.866c-4.954,0-8.824-1.368-11.613-4.102s-4.186-6.604-4.186-11.614
		c0-5.154,1.289-9.142,3.866-11.956c2.579-2.816,6.144-4.227,10.692-4.227c4.349,0,7.733,1.238,10.154,3.715
		c2.424,2.479,3.635,5.898,3.635,10.267v4.071h-19.845c0.092,2.388,0.799,4.248,2.121,5.588c1.32,1.341,3.175,2.01,5.56,2.01
		c1.853,0,3.604-0.193,5.257-0.577c1.651-0.387,3.376-1.001,5.173-1.845v6.493c-1.47,0.734-3.037,1.281-4.706,1.64
		S407.385,391.866,404.98,391.866z M403.798,365.942c-1.782,0-3.176,0.562-4.184,1.691c-1.009,1.128-1.586,2.728-1.732,4.802h11.776
		c-0.036-2.074-0.576-3.674-1.623-4.802C406.989,366.504,405.578,365.942,403.798,365.942z"/>
	<path fill="#FFFFFF" d="M423.171,387.378c0-1.54,0.412-2.705,1.237-3.493c0.827-0.79,2.028-1.183,3.605-1.183
		c1.522,0,2.7,0.401,3.536,1.211c0.835,0.807,1.253,1.961,1.253,3.465c0,1.452-0.422,2.594-1.269,3.428
		c-0.842,0.834-2.018,1.253-3.521,1.253c-1.541,0-2.733-0.408-3.577-1.226C423.593,390.018,423.171,388.865,423.171,387.378z
		 M431.399,377.969h-6.717l-1.402-26.889h9.522L431.399,377.969z"/>
</g>
</svg>
