<?xml version="1.0" encoding="utf-8"?>
<!-- Generator: Adobe Illustrator 16.0.0, SVG Export Plug-In . SVG Version: 6.00 Build 0)  -->
<!DOCTYPE svg PUBLIC "-//W3C//DTD SVG 1.1//EN" "http://www.w3.org/Graphics/SVG/1.1/DTD/svg11.dtd">
<svg version="1.1" id="Capa_1" xmlns="http://www.w3.org/2000/svg" xmlns:xlink="http://www.w3.org/1999/xlink" x="0px" y="0px"
	 width="450px" height="400px" viewBox="0 0 450 400" enable-background="new 0 0 450 400" xml:space="preserve">
<ellipse fill="#FFFFFF" stroke="#000000" stroke-width="7" stroke-miterlimit="10" cx="196.176" cy="104.953" rx="100.893" ry="100.309"/>
<path fill="#FFFFFF" stroke="#000000" stroke-width="7" stroke-miterlimit="10" d="M51,286.5c111.461,1.73,219,0,219,0
	s44.073-3.729,44.307-49.075c0.232-45.347-49.656-42.411-49.656-42.411s20.351-47.475-28.075-47.107
	c-12.249-38.901-18.787-38.423-75.296-42.896c-60.355,1.682-70.107,33.773-70.107,33.773s-49.479-10.553-46.983,48.941
	C44.188,187.726-29.077,241.309,51,286.5z"/>
<path d="M65.203,193.98c0,0,17.584-0.939,26.498-1.954c8.91-1.013,19.111-2.812,23.783-2.614c4.672,0.198,14.859,0.523,25.959,2.491
	c11.104,1.972,7.998,2.026,12.795,2.026c4.797,0,16.053-2.285,16.053-2.285s16.809-3.161,26.627-2.057
	c9.816,1.105,20.488,3.56,30.277,4.554c9.787,0.993,15.807,1.208,15.807,1.208v10.659c0,0-5.764-2.098-6.002,8.029
	c-0.24,10.124-2.396,38.763-36.65,34.562c-34.254-4.195-35.062-31.705-41.1-40.142c0,0,0.461-2.517-5.359-2.517
	c-5.822,0-5.76,2.924-5.76,2.924s-9.533,35.998-35.275,38.885c-25.74,2.883-37.383-2.359-42.59-33.736c0,0,1.096-10.621-5.297-9.841
	L65.203,193.98z"/>
<path fill="#FFFFFF" stroke="#000000" stroke-width="7" stroke-miterlimit="10" d="M269.893,174.484
	c-1.061,11.813-214.214,9.19-222.282,1.801c-8.064-7.39,12.195-31.018,12.195-31.018s101.387,21.855,192.088,4.627
	C251.895,149.895,271.511,156.435,269.893,174.484z"/>
<g>
	<path fill="#FFFFFF" d="M303.8,321.197l-1.916-6.287h-9.629l-1.915,6.287h-6.033l9.321-26.521h6.849l9.356,26.521H303.8z
		 M300.548,310.213c-1.771-5.697-2.769-8.92-2.989-9.666c-0.225-0.746-0.384-1.336-0.479-1.77
		c-0.397,1.541-1.536,5.354-3.415,11.436H300.548z"/>
	<path fill="#FFFFFF" d="M333.988,299.066c-2.107,0-3.739,0.791-4.896,2.375c-1.156,1.584-1.734,3.791-1.734,6.621
		c0,5.891,2.211,8.834,6.631,8.834c1.854,0,4.102-0.464,6.738-1.392v4.697c-2.168,0.904-4.588,1.354-7.263,1.354
		c-3.842,0-6.78-1.166-8.815-3.496c-2.035-2.329-3.053-5.676-3.053-10.034c0-2.747,0.498-5.152,1.498-7.22
		c1-2.063,2.436-3.647,4.309-4.752c1.873-1.102,4.068-1.652,6.586-1.652c2.566,0,5.144,0.621,7.731,1.861l-1.807,4.553
		c-0.987-0.471-1.979-0.879-2.979-1.229S334.952,299.066,333.988,299.066z"/>
	<path fill="#FFFFFF" d="M351.422,321.197h-5.51v-28.111h5.51V321.197z"/>
	<path fill="#FFFFFF" d="M375.559,311.062c0,3.286-0.867,5.858-2.602,7.713s-4.148,2.782-7.244,2.782
		c-1.939,0-3.65-0.426-5.131-1.272c-1.482-0.851-2.62-2.068-3.415-3.658s-1.192-3.445-1.192-5.563c0-3.302,0.861-5.868,2.584-7.697
		c1.723-1.83,4.144-2.746,7.262-2.746c1.939,0,3.65,0.422,5.132,1.267c1.481,0.842,2.62,2.053,3.415,3.631
		C375.162,307.095,375.559,308.941,375.559,311.062z M361.594,311.062c0,1.997,0.327,3.51,0.984,4.532
		c0.656,1.023,1.725,1.537,3.207,1.537c1.469,0,2.525-0.51,3.17-1.526c0.645-1.018,0.967-2.533,0.967-4.544c0-2-0.324-3.5-0.977-4.5
		c-0.65-0.999-1.715-1.497-3.197-1.497c-1.469,0-2.529,0.496-3.18,1.489S361.594,309.051,361.594,311.062z"/>
	<path fill="#FFFFFF" d="M394.42,321.197l-0.74-2.584h-0.289c-0.591,0.938-1.428,1.666-2.512,2.178s-2.318,0.768-3.703,0.768
		c-2.373,0-4.162-0.635-5.365-1.905c-1.205-1.271-1.808-3.099-1.808-5.482v-13.172h5.511v11.799c0,1.457,0.26,2.549,0.776,3.277
		c0.519,0.729,1.343,1.094,2.476,1.094c1.541,0,2.655-0.516,3.342-1.545c0.688-1.029,1.029-2.736,1.029-5.121v-9.504h5.512v20.199
		L394.42,321.197L394.42,321.197z"/>
	<path fill="#FFFFFF" d="M410.824,321.559c-2.373,0-4.236-0.922-5.592-2.764c-1.354-1.844-2.032-4.396-2.032-7.66
		c0-3.312,0.688-5.893,2.067-7.742c1.379-1.849,3.279-2.772,5.7-2.772c2.541,0,4.48,0.987,5.817,2.963h0.181
		c-0.276-1.506-0.415-2.849-0.415-4.028v-6.468h5.527v28.111h-4.228l-1.065-2.619h-0.234
		C415.299,320.564,413.39,321.559,410.824,321.559z M412.757,317.168c1.41,0,2.442-0.41,3.1-1.229
		c0.656-0.819,1.015-2.212,1.074-4.175v-0.596c0-2.168-0.334-3.721-1.003-4.66c-0.668-0.938-1.755-1.409-3.261-1.409
		c-1.229,0-2.184,0.521-2.863,1.562c-0.681,1.043-1.021,2.557-1.021,4.545c0,1.986,0.344,3.477,1.03,4.471
		C410.499,316.671,411.48,317.168,412.757,317.168z"/>
	<path fill="#FFFFFF" d="M424.952,300.998h6.034l3.812,11.365c0.326,0.985,0.549,2.153,0.669,3.504h0.108
		c0.133-1.24,0.392-2.408,0.776-3.504l3.739-11.365h5.907l-8.545,22.783c-0.783,2.106-1.9,3.686-3.353,4.731
		c-1.45,1.049-3.146,1.572-5.086,1.572c-0.95,0-1.885-0.104-2.8-0.307v-4.373c0.662,0.155,1.385,0.233,2.168,0.233
		c0.977,0,1.827-0.297,2.558-0.895c0.729-0.596,1.298-1.496,1.707-2.699l0.324-0.994L424.952,300.998z"/>
	<path fill="#FFFFFF" d="M142.575,355.559c-2.373,0-4.236-0.922-5.592-2.764c-1.354-1.844-2.032-4.396-2.032-7.66
		c0-3.312,0.689-5.893,2.068-7.742c1.379-1.849,3.279-2.772,5.7-2.772c2.541,0,4.48,0.988,5.817,2.963h0.181
		c-0.277-1.506-0.415-2.848-0.415-4.029v-6.467h5.527v28.111h-4.227l-1.066-2.619h-0.234
		C147.05,354.564,145.141,355.559,142.575,355.559z M144.508,351.168c1.41,0,2.442-0.41,3.099-1.229
		c0.657-0.819,1.015-2.212,1.075-4.175v-0.596c0-2.168-0.334-3.721-1.003-4.66c-0.668-0.938-1.755-1.41-3.261-1.41
		c-1.229,0-2.184,0.521-2.863,1.562c-0.681,1.043-1.021,2.557-1.021,4.545c0,1.986,0.344,3.477,1.03,4.471
		S143.231,351.168,144.508,351.168z"/>
	<path fill="#FFFFFF" d="M172.421,355.197l-1.065-2.746h-0.145c-0.928,1.168-1.883,1.979-2.864,2.43s-2.261,0.678-3.839,0.678
		c-1.939,0-3.466-0.555-4.58-1.661c-1.114-1.109-1.671-2.687-1.671-4.734c0-2.144,0.75-3.726,2.249-4.742
		c1.5-1.018,3.761-1.58,6.784-1.688l3.505-0.107v-0.885c0-2.049-1.048-3.072-3.144-3.072c-1.614,0-3.511,0.488-5.69,1.463
		l-1.825-3.721c2.324-1.217,4.902-1.824,7.732-1.824c2.71,0,4.788,0.59,6.233,1.771c1.445,1.18,2.168,2.975,2.168,5.385V355.2
		h-3.848V355.197z M170.795,345.838l-2.132,0.072c-1.602,0.049-2.794,0.338-3.577,0.867c-0.783,0.53-1.174,1.338-1.174,2.422
		c0,1.553,0.891,2.33,2.674,2.33c1.276,0,2.297-0.367,3.062-1.103c0.765-0.734,1.147-1.711,1.147-2.928V345.838z"/>
	<path fill="#FFFFFF" d="M179.051,334.998h6.034l3.812,11.365c0.326,0.985,0.549,2.153,0.669,3.504h0.108
		c0.133-1.24,0.392-2.408,0.777-3.504l3.739-11.365h5.907l-8.545,22.783c-0.783,2.106-1.9,3.686-3.352,4.731
		c-1.451,1.049-3.146,1.572-5.086,1.572c-0.951,0-1.885-0.104-2.8-0.307v-4.373c0.662,0.155,1.385,0.233,2.168,0.233
		c0.976,0,1.827-0.297,2.557-0.895c0.729-0.596,1.298-1.496,1.707-2.699l0.325-0.994L179.051,334.998z"/>
	<path fill="#FFFFFF" d="M212.365,329.777c0-1.795,0.999-2.691,2.998-2.691c2,0,3,0.896,3,2.691c0,0.854-0.251,1.521-0.75,1.996
		c-0.5,0.477-1.25,0.715-2.25,0.715C213.364,332.488,212.365,331.584,212.365,329.777z M218.109,355.197h-5.51v-20.199h5.51V355.197
		z"/>
	<path fill="#FFFFFF" d="M237.982,349.199c0,2.069-0.721,3.647-2.159,4.731c-1.439,1.084-3.593,1.627-6.458,1.627
		c-1.471,0-2.723-0.1-3.758-0.299c-1.037-0.199-2.006-0.49-2.909-0.875v-4.553c1.023,0.479,2.177,0.885,3.46,1.209
		c1.281,0.326,2.412,0.488,3.387,0.488c2,0,3-0.578,3-1.734c0-0.434-0.133-0.785-0.398-1.057c-0.265-0.271-0.723-0.578-1.373-0.922
		c-0.649-0.345-1.518-0.744-2.602-1.201c-1.553-0.65-2.694-1.252-3.423-1.808c-0.729-0.555-1.259-1.188-1.59-1.905
		c-0.332-0.718-0.497-1.599-0.497-2.646c0-1.795,0.695-3.182,2.087-4.164c1.392-0.981,3.362-1.473,5.917-1.473
		c2.434,0,4.799,0.529,7.1,1.59l-1.662,3.975c-1.012-0.434-1.957-0.789-2.836-1.065c-0.879-0.277-1.776-0.414-2.691-0.414
		c-1.626,0-2.438,0.438-2.438,1.318c0,0.493,0.262,0.922,0.784,1.282c0.524,0.361,1.673,0.896,3.441,1.607
		c1.577,0.639,2.733,1.233,3.469,1.789c0.735,0.553,1.276,1.19,1.627,1.914C237.809,347.338,237.982,348.199,237.982,349.199z"/>
	<path fill="#FFFFFF" d="M262.986,355.559c-2.373,0-4.233-0.86-5.584-2.584h-0.289c0.193,1.687,0.289,2.662,0.289,2.929v8.184h-5.51
		v-29.088h4.48l0.777,2.621h0.252c1.289-2,3.197-3,5.728-3c2.386,0,4.252,0.922,5.601,2.764c1.35,1.844,2.023,4.402,2.023,7.681
		c0,2.153-0.316,4.026-0.947,5.616c-0.634,1.59-1.533,2.802-2.701,3.634C265.938,355.143,264.564,355.559,262.986,355.559z
		 M261.359,339.027c-1.36,0-2.354,0.418-2.979,1.256c-0.627,0.838-0.952,2.219-0.978,4.146v0.597c0,2.168,0.322,3.723,0.968,4.662
		c0.646,0.938,1.665,1.407,3.062,1.407c2.469,0,3.703-2.035,3.703-6.104c0-1.988-0.304-3.479-0.912-4.474
		C263.615,339.523,262.661,339.027,261.359,339.027z"/>
	<path fill="#FFFFFF" d="M284.449,355.559c-3.252,0-5.793-0.897-7.624-2.69c-1.831-1.795-2.746-4.336-2.746-7.625
		c0-3.385,0.846-6,2.538-7.851c1.691-1.85,4.031-2.772,7.02-2.772c2.854,0,5.076,0.812,6.666,2.438
		c1.59,1.625,2.385,3.871,2.385,6.738v2.674h-13.025c0.061,1.566,0.523,2.789,1.393,3.668c0.867,0.879,2.084,1.318,3.648,1.318
		c1.217,0,2.367-0.127,3.451-0.379c1.084-0.254,2.216-0.656,3.396-1.211v4.264c-0.964,0.482-1.993,0.84-3.09,1.074
		C287.364,355.441,286.027,355.559,284.449,355.559z M283.673,338.539c-1.169,0-2.084,0.371-2.746,1.111
		c-0.663,0.739-1.042,1.791-1.139,3.151h7.731c-0.023-1.36-0.379-2.412-1.065-3.151C285.77,338.91,284.841,338.539,283.673,338.539z
		"/>
	<path fill="#FFFFFF" d="M308.441,334.619c0.746,0,1.367,0.055,1.86,0.162l-0.415,5.168c-0.445-0.121-0.988-0.183-1.627-0.183
		c-1.759,0-3.129,0.453-4.109,1.355c-0.981,0.904-1.473,2.168-1.473,3.795v10.279h-5.511v-20.199h4.174l0.812,3.396h0.271
		c0.626-1.131,1.473-2.043,2.538-2.735C306.029,334.965,307.188,334.619,308.441,334.619z"/>
	<path fill="#FFFFFF" d="M325.135,339.137h-4.77v16.062h-5.512v-16.062h-3.035v-2.655l3.035-1.482v-1.48
		c0-2.301,0.566-3.979,1.699-5.041c1.133-1.061,2.944-1.59,5.438-1.59c1.903,0,3.596,0.283,5.075,0.851l-1.407,4.047
		c-1.108-0.351-2.134-0.523-3.072-0.523c-0.782,0-1.349,0.23-1.696,0.695c-0.351,0.463-0.524,1.057-0.524,1.779V335h4.771v4.137
		H325.135z"/>
	<path fill="#FFFFFF" d="M337.438,355.559c-3.252,0-5.793-0.897-7.623-2.69c-1.832-1.795-2.746-4.336-2.746-7.625
		c0-3.385,0.846-6,2.537-7.851c1.692-1.85,4.033-2.772,7.02-2.772c2.855,0,5.077,0.812,6.667,2.438
		c1.59,1.625,2.385,3.871,2.385,6.738v2.674H332.65c0.061,1.566,0.523,2.789,1.392,3.668s2.084,1.318,3.649,1.318
		c1.217,0,2.367-0.127,3.451-0.379c1.084-0.254,2.215-0.656,3.396-1.211v4.264c-0.964,0.482-1.994,0.84-3.091,1.074
		C340.354,355.441,339.018,355.559,337.438,355.559z M336.662,338.539c-1.169,0-2.084,0.371-2.746,1.111
		c-0.663,0.739-1.042,1.791-1.139,3.151h7.731c-0.024-1.36-0.379-2.412-1.065-3.151C338.758,338.91,337.83,338.539,336.662,338.539z
		"/>
	<path fill="#FFFFFF" d="M358.359,355.559c-6.287,0-9.432-3.45-9.432-10.352c0-3.434,0.855-6.057,2.565-7.869
		c1.71-1.812,4.161-2.719,7.353-2.719c2.338,0,4.434,0.457,6.287,1.373l-1.625,4.264c-0.867-0.35-1.675-0.635-2.422-0.856
		c-0.746-0.224-1.493-0.334-2.24-0.334c-2.865,0-4.299,2.034-4.299,6.104c0,3.951,1.434,5.926,4.299,5.926
		c1.062,0,2.043-0.141,2.945-0.424s1.807-0.727,2.71-1.328v4.715c-0.892,0.566-1.792,0.957-2.701,1.175
		C360.891,355.45,359.744,355.559,358.359,355.559z"/>
	<path fill="#FFFFFF" d="M377.691,351.168c0.963,0,2.119-0.211,3.469-0.633v4.102c-1.373,0.615-3.061,0.922-5.059,0.922
		c-2.205,0-3.811-0.557-4.815-1.672c-1.007-1.112-1.509-2.785-1.509-5.014v-9.736h-2.637v-2.332l3.034-1.842l1.591-4.264h3.521
		v4.299h5.654v4.139h-5.654v9.736c0,0.783,0.22,1.361,0.658,1.734C376.385,350.98,376.969,351.168,377.691,351.168z"/>
	<path fill="#FFFFFF" d="M406.019,339.137h-4.77v16.062h-5.511v-16.062h-3.035v-2.655l3.035-1.482v-1.48
		c0-2.301,0.565-3.979,1.699-5.041c1.132-1.061,2.943-1.59,5.438-1.59c1.903,0,3.596,0.283,5.076,0.851l-1.408,4.047
		c-1.108-0.351-2.133-0.523-3.072-0.523c-0.781,0-1.349,0.23-1.696,0.695c-0.351,0.463-0.524,1.057-0.524,1.779V335h4.771v4.137
		H406.019z"/>
	<path fill="#FFFFFF" d="M427.535,345.062c0,3.286-0.867,5.858-2.603,7.713c-1.733,1.854-4.148,2.782-7.243,2.782
		c-1.939,0-3.65-0.426-5.132-1.272c-1.481-0.851-2.619-2.068-3.415-3.658c-0.795-1.59-1.191-3.445-1.191-5.563
		c0-3.302,0.861-5.867,2.584-7.697c1.722-1.83,4.143-2.746,7.262-2.746c1.939,0,3.65,0.422,5.131,1.266
		c1.482,0.843,2.62,2.054,3.415,3.631C427.138,341.095,427.535,342.941,427.535,345.062z M413.57,345.062
		c0,1.997,0.327,3.51,0.983,4.532c0.656,1.023,1.726,1.537,3.207,1.537c1.47,0,2.525-0.51,3.17-1.526
		c0.646-1.018,0.968-2.533,0.968-4.544c0-2-0.325-3.5-0.977-4.5c-0.65-1-1.716-1.497-3.198-1.497c-1.469,0-2.528,0.495-3.18,1.489
		C413.895,341.547,413.57,343.051,413.57,345.062z"/>
	<path fill="#FFFFFF" d="M443.361,334.619c0.747,0,1.366,0.055,1.86,0.162l-0.416,5.168c-0.444-0.121-0.986-0.183-1.626-0.183
		c-1.759,0-3.129,0.453-4.109,1.355c-0.981,0.904-1.474,2.168-1.474,3.795v10.279h-5.51v-20.199h4.174l0.812,3.396h0.271
		c0.626-1.131,1.473-2.043,2.538-2.735C440.949,334.965,442.108,334.619,443.361,334.619z"/>
	<path fill="#FFFFFF" d="M150.753,385.227c0,2.406-0.837,4.24-2.509,5.5c-1.673,1.261-4.175,1.892-7.507,1.892
		c-1.707,0-3.163-0.115-4.367-0.349c-1.203-0.229-2.33-0.569-3.38-1.018v-5.291c1.189,0.562,2.53,1.029,4.021,1.406
		c1.491,0.379,2.803,0.567,3.938,0.567c2.323,0,3.484-0.672,3.484-2.016c0-0.504-0.153-0.914-0.461-1.229
		c-0.309-0.316-0.84-0.673-1.596-1.072c-0.756-0.398-1.764-0.863-3.023-1.396c-1.807-0.756-3.133-1.457-3.979-2.1
		c-0.847-0.645-1.463-1.383-1.848-2.217c-0.385-0.832-0.577-1.857-0.577-3.074c0-2.086,0.809-3.699,2.425-4.84
		c1.617-1.142,3.909-1.711,6.876-1.711c2.828,0,5.578,0.615,8.252,1.848l-1.932,4.619c-1.176-0.504-2.274-0.918-3.297-1.24
		c-1.021-0.322-2.064-0.481-3.128-0.481c-1.89,0-2.835,0.512-2.835,1.532c0,0.574,0.305,1.07,0.914,1.49
		c0.608,0.42,1.941,1.043,4,1.869c1.833,0.742,3.177,1.434,4.031,2.078s1.483,1.387,1.889,2.227
		C150.55,383.064,150.753,384.064,150.753,385.227z"/>
	<path fill="#FFFFFF" d="M177.082,380.418c0,3.822-1.008,6.811-3.023,8.965c-2.016,2.156-4.822,3.234-8.42,3.234
		c-2.253,0-4.24-0.494-5.963-1.48c-1.721-0.985-3.044-2.403-3.968-4.252c-0.924-1.848-1.386-4.004-1.386-6.467
		c0-3.836,1.001-6.816,3.002-8.943c2.002-2.129,4.815-3.19,8.441-3.19c2.253,0,4.24,0.487,5.963,1.469
		c1.721,0.98,3.044,2.387,3.968,4.221C176.62,375.808,177.082,377.955,177.082,380.418z M160.852,380.418
		c0,2.324,0.382,4.08,1.145,5.27c0.763,1.19,2.006,1.785,3.727,1.785c1.708,0,2.937-0.592,3.686-1.772
		c0.748-1.185,1.123-2.943,1.123-5.281c0-2.324-0.378-4.066-1.134-5.229c-0.756-1.163-1.995-1.742-3.716-1.742
		c-1.708,0-2.939,0.578-3.695,1.731C161.232,376.334,160.852,378.08,160.852,380.418z"/>
	<path fill="#FFFFFF" d="M203.391,392.197h-6.404v-13.711c0-1.693-0.283-2.963-0.851-3.812c-0.566-0.848-1.459-1.27-2.677-1.27
		c-1.638,0-2.827,0.602-3.569,1.805c-0.742,1.203-1.112,3.184-1.112,5.941v11.045h-6.404v-23.476h4.893l0.86,3.004h0.356
		c0.631-1.077,1.54-1.922,2.73-2.53c1.189-0.609,2.554-0.912,4.094-0.912c3.514,0,5.893,1.146,7.139,3.442h0.566
		c0.631-1.092,1.558-1.938,2.782-2.541c1.224-0.602,2.607-0.901,4.147-0.901c2.659,0,4.671,0.682,6.036,2.047
		c1.364,1.363,2.047,3.551,2.047,6.561v15.308H211.6v-13.711c0-1.693-0.283-2.963-0.851-3.812c-0.566-0.848-1.459-1.27-2.677-1.27
		c-1.567,0-2.74,0.559-3.517,1.68c-0.777,1.119-1.165,2.896-1.165,5.332L203.391,392.197L203.391,392.197z"/>
	<path fill="#FFFFFF" d="M235.221,392.617c-3.779,0-6.732-1.043-8.861-3.129c-2.127-2.086-3.19-5.039-3.19-8.859
		c0-3.934,0.983-6.975,2.95-9.123c1.966-2.147,4.686-3.223,8.156-3.223c3.316,0,5.899,0.942,7.748,2.834
		c1.848,1.889,2.771,4.5,2.771,7.832v3.106h-15.138c0.068,1.818,0.607,3.24,1.615,4.263c1.008,1.021,2.422,1.532,4.242,1.532
		c1.413,0,2.75-0.147,4.01-0.44c1.26-0.295,2.576-0.764,3.947-1.406v4.955c-1.119,0.559-2.316,0.975-3.591,1.248
		C238.605,392.479,237.055,392.617,235.221,392.617z M234.316,372.838c-1.357,0-2.422,0.432-3.191,1.291
		c-0.77,0.861-1.21,2.082-1.322,3.664h8.986c-0.027-1.582-0.441-2.803-1.238-3.664C236.752,373.27,235.675,372.838,234.316,372.838z
		"/>
	<path fill="#FFFFFF" d="M279.354,392.197h-17.679V361.5h17.679v5.334h-11.17v6.74h10.395v5.332h-10.395v7.916h11.17V392.197z"/>
	<path fill="#FFFFFF" d="M290.062,380.209l-7.56-11.486h7.265l4.557,7.476l4.598-7.476h7.266l-7.643,11.486l7.999,11.988h-7.286
		l-4.934-8.041l-4.955,8.041h-7.266L290.062,380.209z"/>
	<path fill="#FFFFFF" d="M320.736,392.617c-3.778,0-6.731-1.043-8.859-3.129s-3.191-5.039-3.191-8.859
		c0-3.934,0.983-6.975,2.951-9.123c1.965-2.147,4.686-3.223,8.156-3.223c3.316,0,5.898,0.942,7.747,2.834
		c1.849,1.889,2.771,4.5,2.771,7.832v3.106h-15.138c0.069,1.818,0.608,3.24,1.616,4.263c1.008,1.021,2.422,1.532,4.241,1.532
		c1.413,0,2.75-0.147,4.01-0.44c1.26-0.295,2.576-0.764,3.946-1.406v4.955c-1.118,0.559-2.315,0.975-3.59,1.248
		C324.123,392.479,322.57,392.617,320.736,392.617z M319.834,372.838c-1.357,0-2.421,0.432-3.191,1.291
		c-0.77,0.861-1.209,2.082-1.322,3.664h8.986c-0.027-1.582-0.44-2.803-1.238-3.664C322.27,373.27,321.191,372.838,319.834,372.838z"
		/>
	<path fill="#FFFFFF" d="M348.62,368.283c0.868,0,1.589,0.062,2.162,0.188l-0.482,6.006c-0.518-0.141-1.147-0.211-1.89-0.211
		c-2.044,0-3.637,0.525-4.776,1.576c-1.142,1.049-1.711,2.521-1.711,4.408v11.947h-6.403v-23.476h4.85l0.945,3.947h0.313
		c0.729-1.314,1.712-2.375,2.95-3.18C345.816,368.686,347.164,368.283,348.62,368.283z"/>
	<path fill="#FFFFFF" d="M364.577,392.617c-7.308,0-10.96-4.01-10.96-12.031c0-3.988,0.994-7.037,2.98-9.145
		c1.987-2.105,4.836-3.158,8.547-3.158c2.715,0,5.149,0.531,7.307,1.596l-1.891,4.955c-1.009-0.406-1.945-0.738-2.812-0.998
		c-0.868-0.26-1.736-0.389-2.604-0.389c-3.332,0-4.998,2.365-4.998,7.098c0,4.59,1.666,6.887,4.998,6.887
		c1.23,0,2.371-0.166,3.422-0.493c1.05-0.328,2.1-0.845,3.148-1.544v5.48c-1.036,0.656-2.082,1.111-3.139,1.363
		S366.188,392.617,364.577,392.617z"/>
	<path fill="#FFFFFF" d="M376.881,362.656c0-2.086,1.162-3.129,3.486-3.129c2.322,0,3.484,1.043,3.484,3.129
		c0,0.992-0.291,1.766-0.871,2.317c-0.582,0.556-1.453,0.83-2.613,0.83C378.043,365.805,376.881,364.756,376.881,362.656z
		 M383.559,392.197h-6.404v-23.476h6.404V392.197z"/>
	<path fill="#FFFFFF" d="M406.654,385.227c0,2.406-0.837,4.24-2.51,5.5c-1.673,1.261-4.175,1.892-7.507,1.892
		c-1.706,0-3.163-0.115-4.366-0.349c-1.203-0.229-2.33-0.569-3.381-1.018v-5.291c1.189,0.562,2.53,1.029,4.021,1.406
		c1.49,0.379,2.803,0.567,3.938,0.567c2.323,0,3.484-0.672,3.484-2.016c0-0.504-0.153-0.914-0.461-1.229
		c-0.309-0.316-0.84-0.673-1.596-1.072c-0.757-0.398-1.765-0.863-3.023-1.396c-1.807-0.756-3.133-1.457-3.979-2.1
		c-0.848-0.645-1.463-1.383-1.849-2.217c-0.385-0.832-0.577-1.857-0.577-3.074c0-2.086,0.81-3.699,2.426-4.84
		c1.617-1.142,3.908-1.711,6.876-1.711c2.827,0,5.577,0.615,8.252,1.848l-1.933,4.619c-1.176-0.504-2.273-0.918-3.297-1.24
		c-1.021-0.322-2.063-0.481-3.128-0.481c-1.89,0-2.835,0.512-2.835,1.532c0,0.574,0.305,1.07,0.914,1.49
		c0.608,0.42,1.941,1.043,4,1.869c1.833,0.742,3.177,1.434,4.031,2.078c0.854,0.645,1.482,1.387,1.889,2.227
		C406.451,383.064,406.654,384.064,406.654,385.227z"/>
	<path fill="#FFFFFF" d="M422.275,392.617c-3.779,0-6.732-1.043-8.86-3.129s-3.191-5.039-3.191-8.859
		c0-3.934,0.983-6.975,2.95-9.123c1.966-2.147,4.687-3.223,8.157-3.223c3.316,0,5.899,0.942,7.747,2.834
		c1.848,1.889,2.771,4.5,2.771,7.832v3.106h-15.138c0.069,1.818,0.608,3.24,1.616,4.263c1.008,1.021,2.422,1.532,4.241,1.532
		c1.414,0,2.75-0.147,4.01-0.44c1.26-0.295,2.576-0.764,3.947-1.406v4.955c-1.119,0.559-2.316,0.975-3.591,1.248
		C425.661,392.479,424.109,392.617,422.275,392.617z M421.372,372.838c-1.357,0-2.421,0.432-3.191,1.291
		c-0.77,0.861-1.21,2.082-1.321,3.664h8.985c-0.027-1.582-0.44-2.803-1.237-3.664C423.808,373.27,422.73,372.838,421.372,372.838z"
		/>
	<path fill="#FFFFFF" d="M436.154,389.195c0-1.177,0.313-2.066,0.943-2.668c0.63-0.603,1.547-0.902,2.751-0.902
		c1.161,0,2.062,0.309,2.697,0.924s0.955,1.498,0.955,2.646c0,1.104-0.321,1.977-0.965,2.612c-0.646,0.638-1.54,0.955-2.688,0.955
		c-1.176,0-2.086-0.312-2.729-0.934C436.476,391.207,436.154,390.328,436.154,389.195z M442.432,382.014h-5.123l-1.069-20.514h7.264
		L442.432,382.014z"/>
</g>
</svg>
