<?xml version="1.0" encoding="utf-8"?>
<!-- Generator: Adobe Illustrator 16.0.0, SVG Export Plug-In . SVG Version: 6.00 Build 0)  -->
<!DOCTYPE svg PUBLIC "-//W3C//DTD SVG 1.1//EN" "http://www.w3.org/Graphics/SVG/1.1/DTD/svg11.dtd">
<svg version="1.1" id="Capa_1" xmlns="http://www.w3.org/2000/svg" xmlns:xlink="http://www.w3.org/1999/xlink" x="0px" y="0px"
	 width="450px" height="400px" viewBox="0 0 450 400" enable-background="new 0 0 450 400" xml:space="preserve">
<g id="Capa_1_1_">
	<g>
		<path fill="#FFFFFF" d="M304.614,55.711l-1.916-6.287h-9.63l-1.914,6.287h-6.034l9.321-26.521h6.849l9.356,26.521H304.614z
			 M301.361,44.727c-1.771-5.697-2.768-8.919-2.989-9.666c-0.224-0.746-0.383-1.336-0.479-1.77
			c-0.397,1.541-1.535,5.354-3.414,11.436H301.361z"/>
		<path fill="#FFFFFF" d="M339.754,55.711l-1.555-7.064l-2.096-8.924h-0.127l-3.686,15.988h-5.926l-5.745-20.198h5.491l2.33,8.942
			c0.375,1.603,0.754,3.812,1.14,6.631h0.108c0.047-0.915,0.259-2.367,0.631-4.354l0.289-1.536l2.494-9.684h6.07l2.366,9.684
			c0.048,0.265,0.123,0.656,0.226,1.175c0.104,0.518,0.202,1.068,0.299,1.652c0.097,0.585,0.184,1.156,0.263,1.717
			c0.077,0.56,0.123,1.009,0.135,1.346h0.108c0.107-0.867,0.302-2.057,0.578-3.568c0.276-1.511,0.477-2.532,0.597-3.062l2.421-8.942
			h5.4l-5.815,20.198L339.754,55.711L339.754,55.711z"/>
		<path fill="#FFFFFF" d="M354.586,30.292c0-1.794,0.999-2.691,2.998-2.691c2,0,3,0.897,3,2.691c0,0.855-0.251,1.521-0.75,1.997
			c-0.5,0.476-1.25,0.714-2.25,0.714C355.585,33.002,354.586,32.098,354.586,30.292z M360.33,55.711h-5.51V35.513h5.51V55.711z"/>
		<path fill="#FFFFFF" d="M384.756,55.711h-5.51V43.915c0-1.458-0.26-2.551-0.777-3.279c-0.517-0.728-1.343-1.094-2.475-1.094
			c-1.542,0-2.656,0.516-3.344,1.545c-0.687,1.03-1.029,2.737-1.029,5.122v9.503h-5.51V35.513h4.209l0.74,2.583h0.309
			c0.613-0.975,1.46-1.713,2.538-2.213c1.077-0.499,2.304-0.75,3.677-0.75c2.348,0,4.131,0.636,5.348,1.906
			c1.217,1.271,1.824,3.104,1.824,5.502V55.711z"/>
		<path fill="#FFFFFF" d="M396.824,56.073c-2.373,0-4.236-0.922-5.592-2.764c-1.354-1.844-2.032-4.396-2.032-7.66
			c0-3.312,0.688-5.893,2.067-7.742c1.379-1.849,3.279-2.773,5.7-2.773c2.541,0,4.48,0.988,5.817,2.963h0.181
			c-0.276-1.505-0.415-2.848-0.415-4.028V27.6h5.527v28.111h-4.228l-1.065-2.619h-0.234
			C401.299,55.079,399.39,56.073,396.824,56.073z M398.757,51.682c1.41,0,2.442-0.409,3.1-1.229c0.655-0.818,1.015-2.21,1.074-4.173
			v-0.597c0-2.168-0.334-3.721-1.003-4.66c-0.668-0.939-1.755-1.41-3.261-1.41c-1.229,0-2.184,0.521-2.862,1.563
			c-0.682,1.042-1.021,2.556-1.021,4.544c0,1.986,0.344,3.478,1.029,4.471C396.499,51.186,397.48,51.682,398.757,51.682z"/>
		<path fill="#FFFFFF" d="M410.952,35.513h6.034l3.812,11.364c0.326,0.987,0.549,2.155,0.669,3.504h0.108
			c0.133-1.24,0.392-2.408,0.776-3.504l3.739-11.364h5.907l-8.545,22.782c-0.783,2.107-1.9,3.686-3.353,4.732
			c-1.45,1.049-3.146,1.572-5.086,1.572c-0.95,0-1.885-0.103-2.8-0.307V59.92c0.662,0.157,1.385,0.235,2.168,0.235
			c0.977,0,1.827-0.298,2.558-0.895c0.729-0.596,1.298-1.496,1.707-2.7l0.324-0.994L410.952,35.513z"/>
		<path fill="#FFFFFF" d="M341.938,84.252c0,4.348-1.236,7.678-3.711,9.99c-2.477,2.312-6.051,3.469-10.724,3.469h-7.479V71.298
			h8.293c4.312,0,7.66,1.138,10.045,3.415C340.747,76.989,341.938,80.168,341.938,84.252z M336.122,84.397
			c0-5.674-2.506-8.51-7.517-8.51h-2.98v17.199h2.402C333.424,93.086,336.122,90.19,336.122,84.397z"/>
		<path fill="#FFFFFF" d="M363.583,97.711l-1.916-6.287h-9.629l-1.915,6.287h-6.034l9.322-26.521h6.848l9.357,26.521H363.583z
			 M360.331,86.727c-1.771-5.697-2.769-8.919-2.99-9.666c-0.224-0.746-0.383-1.336-0.479-1.77
			c-0.397,1.541-1.535,5.354-3.414,11.436H360.331z"/>
		<path fill="#FFFFFF" d="M381.162,82.174l5.51-10.876h6.034l-8.763,16.134v10.279h-5.564v-10.1l-8.762-16.313h6.07L381.162,82.174z
			"/>
		<path fill="#FFFFFF" d="M404.974,72.292c0-1.794,0.999-2.691,2.998-2.691c2,0,3,0.897,3,2.691c0,0.855-0.251,1.521-0.75,1.997
			c-0.5,0.476-1.25,0.714-2.25,0.714C405.973,75.002,404.974,74.098,404.974,72.292z M410.718,97.711h-5.51V77.513h5.51V97.711z"/>
		<path fill="#FFFFFF" d="M430.592,91.713c0,2.071-0.72,3.649-2.159,4.733c-1.438,1.084-3.592,1.626-6.458,1.626
			c-1.47,0-2.723-0.1-3.758-0.298c-1.036-0.199-2.006-0.491-2.909-0.876v-4.553c1.023,0.481,2.178,0.885,3.46,1.21
			c1.282,0.325,2.412,0.487,3.388,0.487c2,0,3-0.578,3-1.734c0-0.434-0.133-0.785-0.398-1.057c-0.265-0.271-0.723-0.578-1.373-0.921
			c-0.649-0.344-1.518-0.744-2.602-1.202c-1.554-0.65-2.694-1.252-3.423-1.807c-0.729-0.554-1.26-1.188-1.591-1.905
			s-0.496-1.599-0.496-2.647c0-1.794,0.694-3.182,2.087-4.164c1.391-0.981,3.362-1.473,5.917-1.473c2.433,0,4.799,0.53,7.1,1.59
			l-1.662,3.975c-1.012-0.434-1.957-0.788-2.836-1.065c-0.88-0.277-1.777-0.415-2.692-0.415c-1.626,0-2.438,0.439-2.438,1.318
			c0,0.494,0.262,0.922,0.785,1.283c0.523,0.361,1.672,0.896,3.44,1.607c1.578,0.639,2.734,1.234,3.47,1.789
			c0.734,0.554,1.276,1.191,1.627,1.914C430.417,89.852,430.592,90.713,430.592,91.713z"/>
		<path fill="#FFFFFF" d="M264.055,140.073c-2.373,0-4.232-0.861-5.582-2.584h-0.289c0.192,1.687,0.289,2.662,0.289,2.928v8.184
			h-5.511v-29.087h4.479l0.777,2.62h0.252c1.289-2,3.198-3,5.729-3c2.385,0,4.252,0.922,5.601,2.765
			c1.349,1.843,2.023,4.402,2.023,7.679c0,2.155-0.316,4.028-0.948,5.618c-0.633,1.59-1.533,2.8-2.701,3.632
			C267.006,139.657,265.633,140.073,264.055,140.073z M262.43,123.542c-1.361,0-2.354,0.419-2.98,1.256
			c-0.627,0.838-0.952,2.22-0.977,4.146v0.596c0,2.168,0.321,3.723,0.967,4.662c0.645,0.939,1.664,1.408,3.062,1.408
			c2.47,0,3.703-2.035,3.703-6.105c0-1.988-0.304-3.479-0.912-4.472C264.684,124.039,263.729,123.542,262.43,123.542z"/>
		<path fill="#FFFFFF" d="M285.518,140.073c-3.252,0-5.793-0.897-7.623-2.691c-1.832-1.795-2.746-4.336-2.746-7.625
			c0-3.384,0.846-6,2.537-7.85c1.692-1.849,4.032-2.773,7.02-2.773c2.855,0,5.077,0.813,6.667,2.439s2.385,3.872,2.385,6.738v2.674
			H280.73c0.062,1.566,0.524,2.789,1.393,3.668c0.868,0.879,2.084,1.318,3.648,1.318c1.218,0,2.367-0.126,3.451-0.379
			s2.217-0.656,3.396-1.211v4.264c-0.965,0.482-1.994,0.841-3.09,1.075C288.434,139.956,287.096,140.073,285.518,140.073z
			 M284.741,123.054c-1.169,0-2.084,0.37-2.746,1.111c-0.663,0.74-1.042,1.791-1.14,3.152h7.732
			c-0.023-1.361-0.379-2.412-1.066-3.152C286.837,123.424,285.909,123.054,284.741,123.054z"/>
		<path fill="#FFFFFF" d="M309.51,119.133c0.747,0,1.367,0.055,1.861,0.163l-0.416,5.167c-0.445-0.12-0.987-0.181-1.626-0.181
			c-1.759,0-3.129,0.452-4.11,1.354c-0.98,0.904-1.473,2.168-1.473,3.795v10.279h-5.51v-20.198h4.174l0.812,3.396h0.271
			c0.626-1.132,1.472-2.044,2.538-2.737C307.098,119.48,308.257,119.133,309.51,119.133z"/>
		<path fill="#FFFFFF" d="M326.203,123.651h-4.77v16.061h-5.512v-16.061h-3.035v-2.656l3.035-1.481v-1.481
			c0-2.301,0.566-3.98,1.699-5.041c1.132-1.06,2.943-1.59,5.438-1.59c1.903,0,3.597,0.283,5.076,0.85l-1.408,4.047
			c-1.107-0.35-2.133-0.523-3.071-0.523c-0.782,0-1.349,0.231-1.697,0.695c-0.351,0.464-0.524,1.057-0.524,1.779v1.265h4.771
			L326.203,123.651L326.203,123.651z"/>
		<path fill="#FFFFFF" d="M338.507,140.073c-3.252,0-5.793-0.897-7.624-2.691c-1.831-1.795-2.746-4.336-2.746-7.625
			c0-3.384,0.846-6,2.538-7.85c1.692-1.849,4.032-2.773,7.019-2.773c2.855,0,5.078,0.813,6.668,2.439s2.385,3.872,2.385,6.738v2.674
			h-13.025c0.061,1.566,0.523,2.789,1.391,3.668c0.869,0.879,2.084,1.318,3.649,1.318c1.218,0,2.367-0.126,3.451-0.379
			s2.216-0.656,3.396-1.211v4.264c-0.963,0.482-1.994,0.841-3.09,1.075C341.422,139.956,340.085,140.073,338.507,140.073z
			 M337.73,123.054c-1.17,0-2.084,0.37-2.746,1.111c-0.664,0.74-1.043,1.791-1.139,3.152h7.731
			c-0.024-1.361-0.379-2.412-1.066-3.152C339.826,123.424,338.898,123.054,337.73,123.054z"/>
		<path fill="#FFFFFF" d="M359.428,140.073c-6.287,0-9.431-3.451-9.431-10.352c0-3.434,0.854-6.056,2.565-7.868
			c1.709-1.812,4.16-2.72,7.353-2.72c2.337,0,4.433,0.458,6.287,1.373l-1.625,4.264c-0.867-0.349-1.675-0.635-2.423-0.857
			c-0.745-0.223-1.492-0.334-2.239-0.334c-2.866,0-4.299,2.035-4.299,6.105c0,3.951,1.433,5.926,4.299,5.926
			c1.062,0,2.042-0.141,2.944-0.424c0.904-0.283,1.808-0.726,2.711-1.328v4.715c-0.893,0.566-1.793,0.958-2.701,1.175
			C361.96,139.965,360.812,140.073,359.428,140.073z"/>
		<path fill="#FFFFFF" d="M378.76,135.682c0.963,0,2.119-0.21,3.469-0.632v4.101c-1.373,0.615-3.06,0.922-5.059,0.922
			c-2.205,0-3.811-0.557-4.814-1.671c-1.006-1.114-1.51-2.785-1.51-5.014v-9.737h-2.637v-2.331l3.035-1.843l1.59-4.264h3.521v4.3
			h5.656v4.138h-5.656v9.737c0,0.783,0.221,1.361,0.66,1.734C377.454,135.495,378.037,135.682,378.76,135.682z"/>
		<path fill="#FFFFFF" d="M404.432,135.682c0.963,0,2.119-0.21,3.47-0.632v4.101c-1.373,0.615-3.061,0.922-5.06,0.922
			c-2.205,0-3.81-0.557-4.814-1.671c-1.005-1.114-1.51-2.785-1.51-5.014v-9.737h-2.637v-2.331l3.035-1.843l1.59-4.264h3.522v4.3
			h5.654v4.138h-5.654v9.737c0,0.783,0.22,1.361,0.659,1.734C403.126,135.495,403.709,135.682,404.432,135.682z"/>
		<path fill="#FFFFFF" d="M430.338,129.577c0,3.287-0.867,5.859-2.602,7.714c-1.735,1.855-4.149,2.782-7.244,2.782
			c-1.939,0-3.65-0.425-5.131-1.273c-1.482-0.85-2.62-2.068-3.415-3.658c-0.795-1.59-1.192-3.445-1.192-5.564
			c0-3.301,0.861-5.866,2.584-7.697c1.722-1.83,4.144-2.746,7.262-2.746c1.939,0,3.65,0.422,5.132,1.266
			c1.481,0.843,2.619,2.053,3.415,3.631C429.941,125.61,430.338,127.457,430.338,129.577z M416.373,129.577
			c0,1.999,0.327,3.511,0.984,4.534c0.655,1.023,1.725,1.536,3.207,1.536c1.469,0,2.524-0.509,3.17-1.527
			c0.645-1.018,0.967-2.532,0.967-4.543c0-2-0.325-3.499-0.977-4.499c-0.65-1-1.716-1.499-3.197-1.499
			c-1.47,0-2.529,0.496-3.181,1.49C416.697,126.062,416.373,127.565,416.373,129.577z"/>
		<path fill="#FFFFFF" d="M260.613,164.348h-5.156v17.363H249.5v-17.363h-3.281v-2.871l3.281-1.602v-1.602
			c0-2.487,0.611-4.304,1.836-5.449c1.225-1.145,3.184-1.719,5.879-1.719c2.059,0,3.887,0.306,5.488,0.918l-1.523,4.375
			c-1.197-0.378-2.305-0.566-3.32-0.566c-0.846,0-1.457,0.251-1.836,0.752c-0.377,0.501-0.565,1.143-0.565,1.924v1.367h5.155
			V164.348L260.613,164.348z M269.988,181.711h-5.957V151.32h5.957V181.711z"/>
		<path fill="#FFFFFF" d="M273.094,159.875h6.523l4.121,12.285c0.352,1.067,0.593,2.331,0.723,3.789h0.117
			c0.145-1.341,0.423-2.604,0.84-3.789l4.043-12.285h6.387l-9.238,24.629c-0.846,2.278-2.053,3.984-3.623,5.117
			c-1.568,1.133-3.4,1.699-5.497,1.699c-1.028,0-2.038-0.11-3.027-0.332v-4.727c0.716,0.169,1.497,0.254,2.345,0.254
			c1.055,0,1.976-0.322,2.764-0.967c0.787-0.645,1.402-1.618,1.846-2.92l0.352-1.074L273.094,159.875z"/>
		<path fill="#FFFFFF" d="M323.23,181.711l-1.152-2.969h-0.156c-1.003,1.263-2.033,2.139-3.096,2.627
			c-1.062,0.488-2.444,0.732-4.15,0.732c-2.097,0-3.746-0.599-4.951-1.797c-1.203-1.198-1.807-2.903-1.807-5.117
			c0-2.317,0.811-4.026,2.432-5.127s4.065-1.709,7.334-1.826l3.789-0.117v-0.957c0-2.214-1.133-3.32-3.397-3.32
			c-1.745,0-3.796,0.527-6.152,1.582l-1.973-4.023c2.513-1.315,5.3-1.973,8.358-1.973c2.931,0,5.176,0.638,6.738,1.914
			c1.562,1.276,2.344,3.216,2.344,5.82v14.551H323.23z M321.473,171.594l-2.305,0.078c-1.73,0.052-3.021,0.364-3.867,0.938
			c-0.846,0.574-1.27,1.445-1.27,2.617c0,1.68,0.964,2.52,2.891,2.52c1.38,0,2.482-0.397,3.311-1.191s1.24-1.849,1.24-3.164V171.594
			z"/>
		<path fill="#FFFFFF" d="M367.352,181.711h-6.875l-7.479-12.031l-2.56,1.836v10.195h-6.055v-28.555h6.055v13.066l2.383-3.359
			l7.734-9.707h6.719l-9.961,12.637L367.352,181.711z"/>
		<path fill="#FFFFFF" d="M370.223,154.231c0-1.94,1.082-2.91,3.242-2.91c2.161,0,3.242,0.97,3.242,2.91
			c0,0.925-0.271,1.644-0.811,2.158c-0.541,0.514-1.352,0.771-2.433,0.771C371.305,157.161,370.223,156.184,370.223,154.231z
			 M376.434,181.711h-5.957v-21.836h5.957V181.711z"/>
		<path fill="#FFFFFF" d="M391.883,177.356c1.042,0,2.292-0.228,3.75-0.684v4.434c-1.484,0.664-3.308,0.996-5.469,0.996
			c-2.383,0-4.118-0.603-5.205-1.807s-1.631-3.011-1.631-5.42v-10.527h-2.852v-2.52l3.28-1.992l1.72-4.609h3.809v4.648h6.113v4.473
			h-6.113v10.527c0,0.847,0.236,1.472,0.713,1.875S391.102,177.356,391.883,177.356z"/>
		<path fill="#FFFFFF" d="M409.93,182.102c-3.516,0-6.263-0.97-8.242-2.91c-1.979-1.94-2.969-4.688-2.969-8.242
			c0-3.659,0.915-6.487,2.744-8.486s4.358-2.998,7.588-2.998c3.086,0,5.488,0.879,7.207,2.637c1.719,1.758,2.578,4.187,2.578,7.285
			v2.891h-14.082c0.065,1.692,0.566,3.015,1.504,3.965c0.938,0.95,2.253,1.426,3.945,1.426c1.314,0,2.559-0.137,3.729-0.41
			c1.172-0.273,2.396-0.71,3.673-1.309v4.609c-1.042,0.521-2.155,0.908-3.341,1.162C413.08,181.976,411.636,182.102,409.93,182.102z
			 M409.09,163.704c-1.263,0-2.253,0.4-2.969,1.201c-0.716,0.801-1.126,1.937-1.23,3.408h8.359c-0.026-1.472-0.41-2.607-1.152-3.408
			C411.356,164.104,410.353,163.704,409.09,163.704z"/>
		<path fill="#FFFFFF" d="M422.84,178.918c0-1.094,0.293-1.921,0.879-2.48s1.438-0.84,2.56-0.84c1.081,0,1.917,0.286,2.51,0.859
			c0.593,0.573,0.889,1.394,0.889,2.461c0,1.028-0.3,1.839-0.897,2.432c-0.599,0.593-1.434,0.889-2.5,0.889
			c-1.095,0-1.94-0.29-2.539-0.869C423.141,180.791,422.84,179.973,422.84,178.918z M428.68,172.239h-4.766l-0.996-19.082h6.758
			L428.68,172.239z"/>
	</g>
	<g>
		<g>
			<path fill="#FFFFFF" d="M323.609,333.914c2.885,5.598,5.17,11.49,9.785,15.943c4.787,4.617,12.388,5.565,18.687,6.246
				c7.42,0.802,14.914,0.523,22.341,1.308c8.182,0.862,15.471,4.285,22.245,8.786c11.97,7.952,21.765,17.243,36.312,20.188
				c3.46,0.7,7.719,1.6,10.721-0.802c0.903-0.722,1.548-1.699,2.306-2.564c2.139-2.442,5.426-3.628,8.394-4.667
				c3.626-1.27,2.065-7.066-1.597-5.784c-4.222,1.479-8.431,3.229-11.438,6.665c-2.49,2.845-4.509,1.828-8.333,1.055
				c-13.584-2.749-23.372-12.65-34.535-20.066c-11.383-7.562-23.56-9.111-36.914-9.574c-6.969-0.242-13.878-0.599-20.5-2.973
				c-6.761-2.424-9.308-10.996-12.291-16.786C327.018,327.446,321.841,330.481,323.609,333.914L323.609,333.914z"/>
		</g>
	</g>
</g>
<g id="Capa_2">
	
		<line fill="none" stroke="#FFFFFF" stroke-width="7" stroke-linecap="round" stroke-miterlimit="10" x1="30" y1="23.5" x2="245" y2="23.5"/>
	
		<line fill="none" stroke="#FFFFFF" stroke-width="7" stroke-linecap="round" stroke-miterlimit="10" x1="50" y1="50.5" x2="240" y2="50.5"/>
	
		<line fill="none" stroke="#FFFFFF" stroke-width="7" stroke-linecap="round" stroke-miterlimit="10" x1="23" y1="77.5" x2="223" y2="77.5"/>
	
		<line fill="none" stroke="#FFFFFF" stroke-width="7" stroke-linecap="round" stroke-miterlimit="10" x1="16" y1="104.5" x2="199" y2="104.5"/>
	
		<line fill="none" stroke="#FFFFFF" stroke-width="7" stroke-linecap="round" stroke-miterlimit="10" x1="20" y1="131.5" x2="176" y2="131.5"/>
	
		<line fill="none" stroke="#FFFFFF" stroke-width="7" stroke-linecap="round" stroke-miterlimit="10" x1="23" y1="158.5" x2="155" y2="158.5"/>
	
		<line fill="none" stroke="#FFFFFF" stroke-width="7" stroke-linecap="round" stroke-miterlimit="10" x1="27" y1="186.5" x2="172" y2="186.5"/>
	
		<line fill="none" stroke="#FFFFFF" stroke-width="7" stroke-linecap="round" stroke-miterlimit="10" x1="35" y1="213.5" x2="197" y2="213.5"/>
	
		<line fill="none" stroke="#FFFFFF" stroke-width="7" stroke-linecap="round" stroke-miterlimit="10" x1="209" y1="240.5" x2="57" y2="240.5"/>
	
		<line fill="none" stroke="#FFFFFF" stroke-width="7" stroke-linecap="round" stroke-miterlimit="10" x1="64" y1="267.5" x2="206" y2="267.5"/>
	
		<line fill="none" stroke="#FFFFFF" stroke-width="7" stroke-linecap="round" stroke-miterlimit="10" x1="74" y1="294.5" x2="197" y2="294.5"/>
	
		<line fill="none" stroke="#FFFFFF" stroke-width="7" stroke-linecap="round" stroke-miterlimit="10" x1="94" y1="321.5" x2="186" y2="321.5"/>
	
		<line fill="none" stroke="#FFFFFF" stroke-width="7" stroke-linecap="round" stroke-miterlimit="10" x1="111" y1="348.5" x2="176" y2="348.5"/>
	
		<line fill="none" stroke="#FFFFFF" stroke-width="7" stroke-linecap="round" stroke-miterlimit="10" x1="121" y1="375.5" x2="159" y2="375.5"/>
	<polygon fill="none" stroke="#FFFFFF" stroke-width="7" stroke-linecap="round" stroke-miterlimit="10" points="330.98,342.366 
		240,276.163 253.77,208.876 320.621,230.6 	"/>
	
		<line fill="none" stroke="#FFFFFF" stroke-width="7" stroke-linecap="round" stroke-miterlimit="10" x1="240" y1="276.163" x2="320.621" y2="230.6"/>
	
		<line fill="none" stroke="#FFFFFF" stroke-width="7" stroke-linecap="round" stroke-miterlimit="10" x1="253.424" y1="210.562" x2="330.777" y2="344.705"/>
</g>
</svg>
