<?xml version="1.0" encoding="utf-8"?>
<!-- Generator: Adobe Illustrator 16.0.0, SVG Export Plug-In . SVG Version: 6.00 Build 0)  -->
<!DOCTYPE svg PUBLIC "-//W3C//DTD SVG 1.1//EN" "http://www.w3.org/Graphics/SVG/1.1/DTD/svg11.dtd">
<svg version="1.1" id="Capa_1" xmlns="http://www.w3.org/2000/svg" xmlns:xlink="http://www.w3.org/1999/xlink" x="0px" y="0px"
	 width="450px" height="400px" viewBox="0 0 450 400" enable-background="new 0 0 450 400" xml:space="preserve">
<g>
	<path fill="#FFFFFF" d="M279.268,289.629h9.062v11.844c-1.47,0.479-2.853,0.815-4.147,1.008c-1.297,0.193-2.623,0.289-3.978,0.289
		c-3.448,0-6.081-1.013-7.897-3.039c-1.817-2.024-2.728-4.935-2.728-8.727c0-3.688,1.055-6.562,3.164-8.625
		c2.108-2.062,5.034-3.094,8.772-3.094c2.344,0,4.604,0.469,6.781,1.406l-1.609,3.875c-1.666-0.834-3.4-1.25-5.203-1.25
		c-2.094,0-3.771,0.703-5.03,2.108c-1.261,1.406-1.892,3.298-1.892,5.673c0,2.479,0.508,4.373,1.523,5.68
		c1.016,1.308,2.492,1.961,4.43,1.961c1.012,0,2.037-0.104,3.078-0.312v-4.766h-4.328v-4.031H279.268z"/>
	<path fill="#FFFFFF" d="M309.268,293.691c0,2.844-0.75,5.067-2.25,6.672c-1.5,1.604-3.59,2.406-6.267,2.406
		c-1.677,0-3.155-0.367-4.438-1.103c-1.281-0.735-2.266-1.789-2.953-3.164c-0.687-1.375-1.03-2.979-1.03-4.812
		c0-2.854,0.745-5.072,2.233-6.656c1.49-1.583,3.584-2.375,6.281-2.375c1.678,0,3.156,0.365,4.438,1.094
		c1.28,0.729,2.266,1.775,2.952,3.141C308.923,290.26,309.268,291.857,309.268,293.691z M297.188,293.691
		c0,1.729,0.285,3.037,0.853,3.922c0.567,0.886,1.492,1.328,2.772,1.328c1.271,0,2.186-0.439,2.742-1.32
		c0.559-0.88,0.836-2.189,0.836-3.93c0-1.729-0.281-3.025-0.844-3.892c-0.562-0.864-1.484-1.297-2.766-1.297
		c-1.271,0-2.188,0.431-2.75,1.289C297.469,290.65,297.188,291.952,297.188,293.691z"/>
	<path fill="#FFFFFF" d="M337.393,293.691c0,2.844-0.75,5.067-2.25,6.672c-1.5,1.604-3.59,2.406-6.267,2.406
		c-1.677,0-3.155-0.367-4.438-1.103c-1.281-0.735-2.266-1.789-2.953-3.164c-0.687-1.375-1.03-2.979-1.03-4.812
		c0-2.854,0.745-5.072,2.233-6.656c1.49-1.583,3.584-2.375,6.281-2.375c1.678,0,3.156,0.365,4.438,1.094
		c1.28,0.729,2.266,1.775,2.952,3.141C337.048,290.26,337.393,291.857,337.393,293.691z M325.312,293.691
		c0,1.729,0.285,3.037,0.853,3.922c0.567,0.886,1.492,1.328,2.772,1.328c1.271,0,2.186-0.439,2.742-1.32
		c0.559-0.88,0.836-2.189,0.836-3.93c0-1.729-0.281-3.025-0.844-3.892c-0.562-0.864-1.484-1.297-2.766-1.297
		c-1.271,0-2.188,0.431-2.75,1.289C325.594,290.65,325.312,291.952,325.312,293.691z"/>
	<path fill="#FFFFFF" d="M353.704,302.457l-0.642-2.234h-0.25c-0.51,0.812-1.233,1.44-2.172,1.883
		c-0.938,0.443-2.004,0.664-3.203,0.664c-2.051,0-3.599-0.549-4.641-1.647s-1.562-2.681-1.562-4.742v-11.392h4.767v10.203
		c0,1.262,0.224,2.207,0.672,2.836c0.448,0.632,1.161,0.945,2.142,0.945c1.332,0,2.297-0.445,2.891-1.336s0.891-2.367,0.891-4.43
		v-8.219h4.766v17.469H353.704z"/>
	<path fill="#FFFFFF" d="M369.721,298.973c0.832,0,1.832-0.182,3-0.547v3.547c-1.188,0.531-2.646,0.797-4.375,0.797
		c-1.906,0-3.295-0.48-4.164-1.444c-0.871-0.964-1.306-2.408-1.306-4.337v-8.422h-2.28v-2.016l2.625-1.594l1.375-3.688h3.047v3.719
		h4.891v3.578h-4.891v8.422c0,0.678,0.189,1.178,0.569,1.5C368.592,298.812,369.096,298.973,369.721,298.973z"/>
	<path fill="#FFFFFF" d="M395.657,302.457l-0.923-2.375h-0.125c-0.801,1.011-1.627,1.711-2.477,2.102
		c-0.849,0.392-1.955,0.586-3.32,0.586c-1.676,0-2.996-0.479-3.961-1.438c-0.963-0.958-1.444-2.322-1.444-4.094
		c0-1.854,0.647-3.221,1.944-4.102s3.254-1.367,5.867-1.462l3.031-0.094v-0.767c0-1.771-0.906-2.655-2.719-2.655
		c-1.396,0-3.036,0.422-4.922,1.266l-1.578-3.219c2.011-1.052,4.238-1.578,6.688-1.578c2.344,0,4.141,0.511,5.392,1.531
		c1.25,1.021,1.875,2.573,1.875,4.655v11.642L395.657,302.457L395.657,302.457z M394.251,294.363l-1.844,0.062
		c-1.386,0.042-2.417,0.292-3.095,0.75c-0.676,0.459-1.016,1.156-1.016,2.095c0,1.344,0.771,2.016,2.312,2.016
		c1.104,0,1.986-0.317,2.647-0.953c0.661-0.635,0.992-1.479,0.992-2.531v-1.438H394.251z"/>
	<path fill="#FFFFFF" d="M420.017,302.457h-4.766v-10.203c0-1.26-0.224-2.205-0.672-2.836c-0.448-0.63-1.161-0.945-2.141-0.945
		c-1.333,0-2.298,0.445-2.892,1.336c-0.594,0.892-0.891,2.367-0.891,4.43v8.22h-4.767v-17.47h3.642l0.641,2.234h0.267
		c0.53-0.844,1.263-1.48,2.194-1.914c0.934-0.432,1.992-0.647,3.181-0.647c2.03,0,3.572,0.55,4.625,1.647
		c1.052,1.101,1.577,2.687,1.577,4.758L420.017,302.457L420.017,302.457z"/>
	<path fill="#FFFFFF" d="M430.454,302.77c-2.053,0-3.664-0.797-4.836-2.391s-1.758-3.802-1.758-6.625
		c0-2.863,0.597-5.096,1.789-6.695c1.191-1.599,2.836-2.397,4.93-2.397c2.197,0,3.875,0.854,5.031,2.562h0.155
		c-0.239-1.302-0.358-2.463-0.358-3.484v-5.594h4.781v24.312h-3.656l-0.922-2.266h-0.203
		C434.323,301.91,432.673,302.77,430.454,302.77z M432.126,298.973c1.219,0,2.111-0.354,2.68-1.062
		c0.567-0.708,0.877-1.911,0.931-3.609v-0.516c0-1.875-0.289-3.22-0.867-4.031s-1.52-1.219-2.82-1.219
		c-1.062,0-1.889,0.45-2.477,1.353c-0.589,0.9-0.883,2.211-0.883,3.93s0.297,3.008,0.891,3.867
		C430.174,298.544,431.021,298.973,432.126,298.973z"/>
	<path fill="#FFFFFF" d="M269.811,349.905c-1.537,0-2.879-0.161-4.021-0.483v-5.669c1.172,0.293,2.242,0.439,3.209,0.439
		c1.494,0,2.562-0.466,3.207-1.396c0.646-0.93,0.967-2.384,0.967-4.361v-30.103h6.812v30.059c0,3.75-0.856,6.606-2.57,8.569
		S273.165,349.905,269.811,349.905z"/>
	<path fill="#FFFFFF" d="M304.945,340.457l-0.901-3.143h-0.353c-0.717,1.143-1.734,2.024-3.053,2.647
		c-1.318,0.622-2.82,0.935-4.506,0.935c-2.886,0-5.062-0.772-6.525-2.318c-1.465-1.545-2.197-3.769-2.197-6.668v-16.02h6.701v14.35
		c0,1.771,0.316,3.102,0.945,3.986c0.631,0.888,1.633,1.329,3.01,1.329c1.875,0,3.229-0.626,4.065-1.878
		c0.834-1.253,1.252-3.329,1.252-6.229v-11.559h6.701v24.565L304.945,340.457L304.945,340.457z"/>
	<path fill="#FFFFFF" d="M339.111,340.457h-6.701v-14.348c0-1.772-0.297-3.104-0.889-3.988c-0.595-0.887-1.527-1.33-2.804-1.33
		c-1.713,0-2.959,0.631-3.733,1.891c-0.777,1.261-1.166,3.332-1.166,6.219v11.558h-6.701v-24.565h5.119l0.902,3.143h0.372
		c0.659-1.127,1.611-2.01,2.856-2.647c1.244-0.637,2.673-0.956,4.283-0.956c3.679,0,6.168,1.202,7.472,3.604h0.594
		c0.659-1.144,1.629-2.028,2.912-2.658c1.281-0.63,2.728-0.945,4.339-0.945c2.783,0,4.891,0.716,6.316,2.144
		c1.429,1.429,2.144,3.718,2.144,6.867v16.018h-6.725v-14.348c0-1.772-0.298-3.104-0.89-3.988c-0.594-0.887-1.526-1.33-2.803-1.33
		c-1.641,0-2.867,0.587-3.68,1.758c-0.812,1.173-1.221,3.033-1.221,5.582v12.322H339.111z"/>
	<path fill="#FFFFFF" d="M374.796,340.896c-2.886,0-5.149-1.048-6.79-3.144h-0.352c0.234,2.052,0.352,3.237,0.352,3.562v9.952
		h-6.701v-35.376h5.449l0.945,3.188h0.307c1.568-2.432,3.891-3.648,6.967-3.648c2.899,0,5.17,1.121,6.812,3.362
		c1.641,2.241,2.461,5.354,2.461,9.339c0,2.622-0.386,4.899-1.153,6.833c-0.77,1.935-1.863,3.405-3.285,4.417
		C378.385,340.391,376.715,340.896,374.796,340.896z M372.818,320.791c-1.655,0-2.863,0.51-3.625,1.527
		c-0.762,1.019-1.158,2.698-1.188,5.043v0.725c0,2.637,0.394,4.527,1.177,5.67c0.782,1.144,2.024,1.713,3.725,1.713
		c3.003,0,4.504-2.475,4.504-7.426c0-2.418-0.369-4.229-1.109-5.438C375.561,321.396,374.4,320.791,372.818,320.791z"/>
	<path fill="#FFFFFF" d="M401.186,309.541c0-2.182,1.216-3.273,3.646-3.273s3.648,1.093,3.648,3.273c0,1.041-0.306,1.85-0.912,2.429
		c-0.608,0.578-1.521,0.868-2.736,0.868C402.4,312.838,401.186,311.738,401.186,309.541z M408.172,340.457h-6.701v-24.565h6.701
		V340.457z"/>
	<path fill="#FFFFFF" d="M437.88,340.457h-6.701v-14.348c0-1.772-0.315-3.104-0.944-3.988c-0.632-0.887-1.636-1.33-3.012-1.33
		c-1.875,0-3.229,0.627-4.063,1.879c-0.836,1.253-1.253,3.329-1.253,6.229v11.558h-6.702v-24.565h5.12l0.9,3.143h0.373
		c0.747-1.187,1.775-2.083,3.088-2.691c1.312-0.606,2.802-0.912,4.473-0.912c2.854,0,5.022,0.773,6.504,2.318
		c1.479,1.546,2.219,3.776,2.219,6.691L437.88,340.457L437.88,340.457z"/>
	<path fill="#FFFFFF" d="M283.877,384.857c-2.629,0-4.691-0.954-6.186-2.863h-0.32c0.213,1.869,0.32,2.95,0.32,3.244v9.067h-6.106
		v-32.23h4.965l0.86,2.902h0.281c1.428-2.216,3.543-3.323,6.346-3.323c2.643,0,4.711,1.021,6.206,3.062s2.241,4.878,2.241,8.509
		c0,2.39-0.351,4.465-1.051,6.227c-0.701,1.762-1.697,3.103-2.992,4.023S285.625,384.857,283.877,384.857z M282.075,366.539
		c-1.509,0-2.609,0.465-3.304,1.392c-0.693,0.929-1.056,2.46-1.08,4.596v0.659c0,2.402,0.355,4.125,1.07,5.166
		c0.713,1.041,1.846,1.562,3.394,1.562c2.735,0,4.104-2.255,4.104-6.766c0-2.203-0.339-3.854-1.013-4.955
		C284.574,367.09,283.518,366.539,282.075,366.539z"/>
	<path fill="#FFFFFF" d="M313.386,384.457l-0.821-2.863h-0.319c-0.654,1.041-1.581,1.847-2.782,2.413s-2.568,0.852-4.104,0.852
		c-2.629,0-4.611-0.704-5.945-2.112c-1.335-1.407-2.002-3.434-2.002-6.075v-14.595h6.105v13.073c0,1.613,0.286,2.825,0.86,3.633
		s1.487,1.211,2.742,1.211c1.709,0,2.942-0.57,3.704-1.711c0.761-1.143,1.142-3.033,1.142-5.676v-10.53h6.104v22.382
		L313.386,384.457L313.386,384.457z"/>
	<path fill="#FFFFFF" d="M331.562,384.857c-2.629,0-4.693-1.021-6.195-3.062c-1.501-2.043-2.252-4.872-2.252-8.488
		c0-3.671,0.764-6.529,2.291-8.579c1.529-2.048,3.635-3.072,6.316-3.072c2.815,0,4.965,1.095,6.446,3.282h0.2
		c-0.309-1.668-0.46-3.154-0.46-4.464v-7.167h6.125v31.15h-4.685l-1.182-2.902h-0.26
		C336.521,383.756,334.406,384.857,331.562,384.857z M333.705,379.992c1.562,0,2.706-0.453,3.434-1.361
		c0.729-0.907,1.125-2.448,1.191-4.624v-0.661c0-2.401-0.37-4.123-1.111-5.164c-0.74-1.041-1.945-1.562-3.613-1.562
		c-1.36,0-2.42,0.578-3.172,1.731c-0.756,1.154-1.133,2.832-1.133,5.035c0,2.201,0.381,3.854,1.143,4.954
		C331.203,379.442,332.291,379.992,333.705,379.992z"/>
	<path fill="#FFFFFF" d="M357.509,384.857c-2.63,0-4.694-1.021-6.196-3.062c-1.5-2.043-2.252-4.872-2.252-8.488
		c0-3.671,0.765-6.529,2.293-8.579c1.527-2.048,3.633-3.072,6.315-3.072c2.815,0,4.965,1.095,6.446,3.282h0.199
		c-0.308-1.668-0.459-3.154-0.459-4.464v-7.167h6.125v31.15h-4.685l-1.182-2.902h-0.261
		C362.467,383.756,360.352,384.857,357.509,384.857z M359.65,379.992c1.562,0,2.705-0.453,3.434-1.361
		c0.729-0.907,1.125-2.448,1.191-4.624v-0.661c0-2.401-0.371-4.123-1.111-5.164s-1.945-1.562-3.613-1.562
		c-1.361,0-2.42,0.578-3.173,1.731c-0.755,1.154-1.132,2.832-1.132,5.035c0,2.201,0.381,3.854,1.143,4.954
		C357.148,379.442,358.236,379.992,359.65,379.992z"/>
	<path fill="#FFFFFF" d="M382.473,384.457h-6.104v-31.15h6.104V384.457z"/>
	<path fill="#FFFFFF" d="M399.01,384.857c-3.604,0-6.42-0.994-8.449-2.982c-2.027-1.989-3.043-4.805-3.043-8.449
		c0-3.75,0.938-6.648,2.812-8.698c1.875-2.048,4.469-3.072,7.778-3.072c3.163,0,5.626,0.9,7.388,2.703
		c1.762,1.802,2.643,4.291,2.643,7.467v2.963h-14.435c0.065,1.735,0.581,3.091,1.542,4.063c0.961,0.976,2.309,1.462,4.043,1.462
		c1.348,0,2.623-0.141,3.824-0.421c1.201-0.279,2.455-0.728,3.764-1.342v4.726c-1.068,0.533-2.209,0.932-3.424,1.19
		C402.238,384.728,400.758,384.857,399.01,384.857z M398.148,365.999c-1.296,0-2.31,0.41-3.043,1.231
		c-0.734,0.819-1.154,1.984-1.263,3.492h8.568c-0.026-1.508-0.42-2.673-1.181-3.492
		C400.471,366.409,399.443,365.999,398.148,365.999z"/>
	<path fill="#FFFFFF" d="M428.718,377.811c0,2.297-0.797,4.045-2.392,5.245c-1.596,1.201-3.98,1.803-7.157,1.803
		c-1.628,0-3.017-0.11-4.164-0.33c-1.146-0.222-2.222-0.544-3.224-0.972v-5.045c1.135,0.533,2.412,0.98,3.834,1.341
		c1.422,0.361,2.673,0.54,3.754,0.54c2.215,0,3.323-0.641,3.323-1.922c0-0.479-0.147-0.87-0.44-1.171
		c-0.294-0.3-0.801-0.641-1.521-1.021c-0.722-0.381-1.683-0.824-2.884-1.332c-1.722-0.722-2.985-1.389-3.793-2.002
		c-0.809-0.613-1.396-1.317-1.762-2.111c-0.368-0.794-0.551-1.771-0.551-2.934c0-1.988,0.77-3.526,2.312-4.614
		c1.541-1.087,3.728-1.632,6.557-1.632c2.695,0,5.317,0.588,7.866,1.762l-1.841,4.404c-1.121-0.48-2.17-0.873-3.144-1.182
		c-0.976-0.307-1.969-0.46-2.983-0.46c-1.801,0-2.702,0.487-2.702,1.461c0,0.549,0.29,1.021,0.87,1.423
		c0.582,0.399,1.854,0.993,3.814,1.78c1.748,0.708,3.028,1.368,3.844,1.982c0.813,0.613,1.415,1.319,1.802,2.121
		C428.524,375.747,428.718,376.703,428.718,377.811z"/>
	<path fill="#FFFFFF" d="M432.622,381.594c0-1.121,0.301-1.968,0.901-2.542c0.601-0.573,1.475-0.859,2.621-0.859
		c1.108,0,1.967,0.293,2.573,0.881c0.606,0.587,0.911,1.428,0.911,2.521c0,1.056-0.308,1.887-0.922,2.493
		c-0.613,0.606-1.468,0.911-2.562,0.911c-1.12,0-1.987-0.298-2.602-0.892C432.93,383.513,432.622,382.676,432.622,381.594z
		 M438.608,374.748h-4.886l-1.021-19.561h6.928L438.608,374.748z"/>
</g>
<path fill="#FFFFFF" stroke="#000000" stroke-width="7" stroke-miterlimit="10" d="M55.277,153.14c88.908,1.38,174.688,0,174.688,0
	s35.156-2.974,35.342-39.146s-39.608-33.83-39.608-33.83s16.231-37.869-22.396-37.576c-9.77-31.03-14.985-30.649-60.061-34.216
	c-48.142,1.342-55.922,26.94-55.922,26.94s-39.467-8.417-37.477,39.039C49.843,74.351-8.598,117.091,55.277,153.14z"/>
<line fill="none" stroke="#FFFFFF" stroke-width="7" stroke-linecap="round" stroke-miterlimit="10" x1="23.5" y1="164" x2="23.5" y2="237"/>
<line fill="none" stroke="#FFFFFF" stroke-width="7" stroke-linecap="round" stroke-miterlimit="10" x1="57.5" y1="164" x2="57.5" y2="204"/>
<line fill="none" stroke="#FFFFFF" stroke-width="7" stroke-linecap="round" stroke-miterlimit="10" x1="91.5" y1="164" x2="91.5" y2="214"/>
<line fill="none" stroke="#FFFFFF" stroke-width="7" stroke-linecap="round" stroke-miterlimit="10" x1="124.5" y1="164" x2="124.5" y2="188"/>
<line fill="none" stroke="#FFFFFF" stroke-width="7" stroke-linecap="round" stroke-miterlimit="10" x1="148.5" y1="179" x2="148.5" y2="252"/>
<line fill="none" stroke="#FFFFFF" stroke-width="7" stroke-linecap="round" stroke-miterlimit="10" x1="182.5" y1="179" x2="182.5" y2="219"/>
<line fill="none" stroke="#FFFFFF" stroke-width="7" stroke-linecap="round" stroke-miterlimit="10" x1="216.5" y1="179" x2="216.5" y2="229"/>
<line fill="none" stroke="#FFFFFF" stroke-width="7" stroke-linecap="round" stroke-miterlimit="10" x1="250.5" y1="179" x2="250.5" y2="203"/>
<line fill="none" stroke="#FFFFFF" stroke-width="7" stroke-linecap="round" stroke-miterlimit="10" x1="282.5" y1="227" x2="282.5" y2="251"/>
<line fill="none" stroke="#FFFFFF" stroke-width="7" stroke-linecap="round" stroke-miterlimit="10" x1="243.5" y1="242" x2="243.5" y2="296"/>
<line fill="none" stroke="#FFFFFF" stroke-width="7" stroke-linecap="round" stroke-miterlimit="10" x1="214.5" y1="287" x2="214.5" y2="327"/>
<line fill="none" stroke="#FFFFFF" stroke-width="7" stroke-linecap="round" stroke-miterlimit="10" x1="182.5" y1="242" x2="182.5" y2="313"/>
<line fill="none" stroke="#FFFFFF" stroke-width="7" stroke-linecap="round" stroke-miterlimit="10" x1="123.5" y1="238" x2="123.5" y2="288"/>
<line fill="none" stroke="#FFFFFF" stroke-width="7" stroke-linecap="round" stroke-miterlimit="10" x1="89.5" y1="256" x2="89.5" y2="295"/>
<line fill="none" stroke="#FFFFFF" stroke-width="7" stroke-linecap="round" stroke-miterlimit="10" x1="55.5" y1="247" x2="55.5" y2="320"/>
</svg>
