<?xml version="1.0" encoding="utf-8"?>
<!-- Generator: Adobe Illustrator 16.0.0, SVG Export Plug-In . SVG Version: 6.00 Build 0)  -->
<!DOCTYPE svg PUBLIC "-//W3C//DTD SVG 1.1//EN" "http://www.w3.org/Graphics/SVG/1.1/DTD/svg11.dtd">
<svg version="1.1" id="Capa_2" xmlns="http://www.w3.org/2000/svg" xmlns:xlink="http://www.w3.org/1999/xlink" x="0px" y="0px"
	 width="450px" height="400px" viewBox="0 0 450 400" enable-background="new 0 0 450 400" xml:space="preserve">
<path fill="#FFFFFF" stroke="#000000" stroke-width="7" stroke-miterlimit="10" d="M50.429,199.931
	c119.125,1.848,234.059,0,234.059,0s47.104-3.984,47.352-52.45c0.249-48.466-53.07-45.328-53.07-45.328s21.75-50.74-30.006-50.347
	C235.673,10.23,228.686,10.741,168.29,5.961c-64.505,1.797-74.928,36.096-74.928,36.096s-52.88-11.278-50.214,52.307
	C43.147,94.365-35.155,151.63,50.429,199.931z"/>
<rect x="292.5" y="145.5" fill="#FFFFFF" stroke="#000000" stroke-width="5" stroke-miterlimit="10" width="39" height="91"/>
<rect x="390.5" y="145.5" fill="#FFFFFF" stroke="#000000" stroke-width="5" stroke-miterlimit="10" width="40" height="96"/>
<rect x="287.5" y="129.5" fill="#FFFFFF" stroke="#000000" stroke-width="5" stroke-miterlimit="10" width="150" height="20"/>
<rect x="285.5" y="234.5" fill="#FFFFFF" stroke="#000000" stroke-width="5" stroke-miterlimit="10" width="153" height="14"/>
<line fill="none" stroke="#000000" stroke-width="5" stroke-miterlimit="10" x1="293" y1="166.5" x2="332" y2="166.5"/>
<line fill="none" stroke="#000000" stroke-width="5" stroke-miterlimit="10" x1="295" y1="183.5" x2="332" y2="183.5"/>
<line fill="none" stroke="#000000" stroke-width="5" stroke-miterlimit="10" x1="295" y1="201.5" x2="332" y2="201.5"/>
<line fill="none" stroke="#000000" stroke-width="5" stroke-miterlimit="10" x1="295" y1="217.5" x2="332" y2="217.5"/>
<line fill="none" stroke="#000000" stroke-width="5" stroke-miterlimit="10" x1="391" y1="166.5" x2="430" y2="166.5"/>
<line fill="none" stroke="#000000" stroke-width="5" stroke-miterlimit="10" x1="393" y1="183.5" x2="430" y2="183.5"/>
<line fill="none" stroke="#000000" stroke-width="5" stroke-miterlimit="10" x1="393" y1="201.5" x2="430" y2="201.5"/>
<line fill="none" stroke="#000000" stroke-width="5" stroke-miterlimit="10" x1="393" y1="217.5" x2="430" y2="217.5"/>
<line fill="none" stroke="#000000" stroke-width="5" stroke-miterlimit="10" x1="306.5" y1="150" x2="306.5" y2="165"/>
<line fill="none" stroke="#000000" stroke-width="5" stroke-miterlimit="10" x1="319.5" y1="167" x2="319.5" y2="182"/>
<line fill="none" stroke="#000000" stroke-width="5" stroke-miterlimit="10" x1="319.5" y1="201" x2="319.5" y2="216"/>
<line fill="none" stroke="#000000" stroke-width="5" stroke-miterlimit="10" x1="306.5" y1="218" x2="306.5" y2="233"/>
<line fill="none" stroke="#000000" stroke-width="5" stroke-miterlimit="10" x1="306.5" y1="185" x2="306.5" y2="200"/>
<line fill="none" stroke="#000000" stroke-width="5" stroke-miterlimit="10" x1="405.5" y1="150" x2="405.5" y2="165"/>
<line fill="none" stroke="#000000" stroke-width="5" stroke-miterlimit="10" x1="418.5" y1="168" x2="418.5" y2="183"/>
<line fill="none" stroke="#000000" stroke-width="5" stroke-miterlimit="10" x1="418.5" y1="202" x2="418.5" y2="217"/>
<line fill="none" stroke="#000000" stroke-width="5" stroke-miterlimit="10" x1="405.5" y1="219" x2="405.5" y2="234"/>
<line fill="none" stroke="#000000" stroke-width="5" stroke-miterlimit="10" x1="405.5" y1="185" x2="405.5" y2="200"/>
<path fill="none" stroke="#000000" stroke-width="5" stroke-linecap="round" stroke-linejoin="round" stroke-miterlimit="10" d="
	M347,233.5h25c0,0,21.136-10.016,7.662-32.25c-13.475-22.234-4.393,0.503-4.393,0.503s1.693,11.208-7.865,10.339
	c0,0,6.592-20.02-15.647-27.061c0,0,6.873,30.959-0.868,32.572c0,0-8.527-7.246-4.305-13.807
	C346.584,203.798,330.073,213.5,347,233.5z"/>
<g>
	
		<line fill="none" stroke="#FFFFFF" stroke-width="4" stroke-linecap="round" stroke-linejoin="round" stroke-miterlimit="10" x1="72" y1="226" x2="72" y2="249"/>
	
		<line fill="none" stroke="#FFFFFF" stroke-width="4" stroke-linecap="round" stroke-linejoin="round" stroke-miterlimit="10" x1="63.064" y1="227.852" x2="82.204" y2="246.99"/>
	
		<line fill="none" stroke="#FFFFFF" stroke-width="4" stroke-linecap="round" stroke-linejoin="round" stroke-miterlimit="10" x1="82.322" y1="227.543" x2="63.288" y2="246.578"/>
	
		<line fill="none" stroke="#FFFFFF" stroke-width="4" stroke-linecap="round" stroke-linejoin="round" stroke-miterlimit="10" x1="61" y1="238" x2="85" y2="238"/>
</g>
<g>
	
		<line fill="none" stroke="#FFFFFF" stroke-width="4" stroke-linecap="round" stroke-linejoin="round" stroke-miterlimit="10" x1="58" y1="276" x2="58" y2="299"/>
	
		<line fill="none" stroke="#FFFFFF" stroke-width="4" stroke-linecap="round" stroke-linejoin="round" stroke-miterlimit="10" x1="49.064" y1="277.852" x2="68.204" y2="296.99"/>
	
		<line fill="none" stroke="#FFFFFF" stroke-width="4" stroke-linecap="round" stroke-linejoin="round" stroke-miterlimit="10" x1="68.322" y1="277.543" x2="49.288" y2="296.578"/>
	
		<line fill="none" stroke="#FFFFFF" stroke-width="4" stroke-linecap="round" stroke-linejoin="round" stroke-miterlimit="10" x1="47" y1="288" x2="71" y2="288"/>
</g>
<g>
	
		<line fill="none" stroke="#FFFFFF" stroke-width="4" stroke-linecap="round" stroke-linejoin="round" stroke-miterlimit="10" x1="115" y1="250" x2="115" y2="273"/>
	
		<line fill="none" stroke="#FFFFFF" stroke-width="4" stroke-linecap="round" stroke-linejoin="round" stroke-miterlimit="10" x1="106.064" y1="251.852" x2="125.204" y2="270.99"/>
	
		<line fill="none" stroke="#FFFFFF" stroke-width="4" stroke-linecap="round" stroke-linejoin="round" stroke-miterlimit="10" x1="125.322" y1="251.543" x2="106.288" y2="270.578"/>
	
		<line fill="none" stroke="#FFFFFF" stroke-width="4" stroke-linecap="round" stroke-linejoin="round" stroke-miterlimit="10" x1="104" y1="262" x2="128" y2="262"/>
</g>
<g>
	
		<line fill="none" stroke="#FFFFFF" stroke-width="4" stroke-linecap="round" stroke-linejoin="round" stroke-miterlimit="10" x1="160" y1="221" x2="160" y2="244"/>
	
		<line fill="none" stroke="#FFFFFF" stroke-width="4" stroke-linecap="round" stroke-linejoin="round" stroke-miterlimit="10" x1="151.064" y1="222.852" x2="170.204" y2="241.99"/>
	
		<line fill="none" stroke="#FFFFFF" stroke-width="4" stroke-linecap="round" stroke-linejoin="round" stroke-miterlimit="10" x1="170.322" y1="222.543" x2="151.288" y2="241.578"/>
	
		<line fill="none" stroke="#FFFFFF" stroke-width="4" stroke-linecap="round" stroke-linejoin="round" stroke-miterlimit="10" x1="149" y1="233" x2="173" y2="233"/>
</g>
<g>
	
		<line fill="none" stroke="#FFFFFF" stroke-width="4" stroke-linecap="round" stroke-linejoin="round" stroke-miterlimit="10" x1="176" y1="273" x2="176" y2="296"/>
	
		<line fill="none" stroke="#FFFFFF" stroke-width="4" stroke-linecap="round" stroke-linejoin="round" stroke-miterlimit="10" x1="167.064" y1="274.852" x2="186.204" y2="293.99"/>
	
		<line fill="none" stroke="#FFFFFF" stroke-width="4" stroke-linecap="round" stroke-linejoin="round" stroke-miterlimit="10" x1="186.322" y1="274.543" x2="167.288" y2="293.578"/>
	
		<line fill="none" stroke="#FFFFFF" stroke-width="4" stroke-linecap="round" stroke-linejoin="round" stroke-miterlimit="10" x1="165" y1="285" x2="189" y2="285"/>
</g>
<g>
	
		<line fill="none" stroke="#FFFFFF" stroke-width="4" stroke-linecap="round" stroke-linejoin="round" stroke-miterlimit="10" x1="218" y1="237" x2="218" y2="260"/>
	
		<line fill="none" stroke="#FFFFFF" stroke-width="4" stroke-linecap="round" stroke-linejoin="round" stroke-miterlimit="10" x1="209.064" y1="238.852" x2="228.203" y2="257.99"/>
	
		<line fill="none" stroke="#FFFFFF" stroke-width="4" stroke-linecap="round" stroke-linejoin="round" stroke-miterlimit="10" x1="228.322" y1="238.543" x2="209.288" y2="257.578"/>
	
		<line fill="none" stroke="#FFFFFF" stroke-width="4" stroke-linecap="round" stroke-linejoin="round" stroke-miterlimit="10" x1="207" y1="249" x2="231" y2="249"/>
</g>
<g>
	
		<line fill="none" stroke="#FFFFFF" stroke-width="4" stroke-linecap="round" stroke-linejoin="round" stroke-miterlimit="10" x1="253" y1="219" x2="253" y2="242"/>
	
		<line fill="none" stroke="#FFFFFF" stroke-width="4" stroke-linecap="round" stroke-linejoin="round" stroke-miterlimit="10" x1="244.064" y1="220.852" x2="263.203" y2="239.99"/>
	
		<line fill="none" stroke="#FFFFFF" stroke-width="4" stroke-linecap="round" stroke-linejoin="round" stroke-miterlimit="10" x1="263.322" y1="220.543" x2="244.287" y2="239.578"/>
	
		<line fill="none" stroke="#FFFFFF" stroke-width="4" stroke-linecap="round" stroke-linejoin="round" stroke-miterlimit="10" x1="242" y1="231" x2="266" y2="231"/>
</g>
<g>
	<path fill="#FFFFFF" d="M167.343,319.195c0,3.149-0.984,5.559-2.953,7.229c-1.969,1.668-4.768,2.502-8.397,2.502h-2.663v10.41
		h-6.206v-29.27h9.35c3.55,0,6.249,0.766,8.098,2.293C166.418,313.887,167.343,316.166,167.343,319.195z M153.329,323.84h2.042
		c1.908,0,3.336-0.377,4.284-1.131c0.947-0.754,1.421-1.852,1.421-3.293c0-1.455-0.396-2.529-1.19-3.223
		c-0.795-0.693-2.039-1.041-3.733-1.041h-2.823L153.329,323.84L153.329,323.84z"/>
	<path fill="#FFFFFF" d="M182.518,339.736c-3.604,0-6.42-0.994-8.448-2.982c-2.029-1.99-3.043-4.805-3.043-8.449
		c0-3.75,0.938-6.649,2.812-8.698c1.875-2.048,4.468-3.072,7.777-3.072c3.164,0,5.626,0.899,7.388,2.703
		c1.762,1.801,2.643,4.291,2.643,7.467v2.963h-14.435c0.067,1.734,0.581,3.09,1.542,4.064c0.961,0.974,2.309,1.461,4.044,1.461
		c1.348,0,2.623-0.142,3.824-0.42c1.201-0.281,2.455-0.729,3.764-1.343v4.726c-1.068,0.532-2.21,0.932-3.424,1.19
		C185.747,339.605,184.266,339.736,182.518,339.736z M181.657,320.877c-1.295,0-2.31,0.41-3.043,1.232
		c-0.734,0.819-1.155,1.983-1.262,3.491h8.568c-0.027-1.508-0.42-2.672-1.182-3.491
		C183.979,321.287,182.951,320.877,181.657,320.877z"/>
	<path fill="#FFFFFF" d="M209.104,316.533c0.827,0,1.515,0.061,2.062,0.18l-0.461,5.728c-0.494-0.134-1.095-0.201-1.802-0.201
		c-1.949,0-3.467,0.502-4.555,1.502c-1.088,1.002-1.632,2.401-1.632,4.205v11.391h-6.105v-22.383h4.625l0.9,3.764h0.301
		c0.693-1.254,1.631-2.266,2.812-3.033C206.431,316.918,207.715,316.533,209.104,316.533z"/>
	<path fill="#FFFFFF" d="M227.602,321.539h-5.285v17.797h-6.106v-17.797h-3.363v-2.943l3.363-1.643v-1.641
		c0-2.55,0.628-4.412,1.883-5.587c1.254-1.174,3.263-1.762,6.025-1.762c2.107,0,3.984,0.314,5.625,0.941l-1.561,4.483
		c-1.229-0.387-2.363-0.58-3.405-0.58c-0.867,0-1.494,0.257-1.881,0.771c-0.388,0.514-0.581,1.172-0.581,1.973v1.4h5.285V321.539
		L227.602,321.539z"/>
	<path fill="#FFFFFF" d="M241.234,339.736c-3.604,0-6.42-0.994-8.448-2.982c-2.029-1.99-3.043-4.805-3.043-8.449
		c0-3.75,0.938-6.649,2.812-8.698c1.875-2.048,4.469-3.072,7.777-3.072c3.164,0,5.626,0.899,7.389,2.703
		c1.762,1.801,2.643,4.291,2.643,7.467v2.963h-14.436c0.067,1.734,0.581,3.09,1.543,4.064c0.961,0.974,2.309,1.461,4.043,1.461
		c1.348,0,2.623-0.142,3.824-0.42c1.201-0.281,2.455-0.729,3.764-1.343v4.726c-1.067,0.532-2.209,0.932-3.424,1.19
		C244.464,339.605,242.982,339.736,241.234,339.736z M240.374,320.877c-1.295,0-2.31,0.41-3.043,1.232
		c-0.733,0.819-1.155,1.983-1.263,3.491h8.568c-0.027-1.508-0.42-2.672-1.182-3.491
		C242.695,321.287,241.668,320.877,240.374,320.877z"/>
	<path fill="#FFFFFF" d="M264.417,339.736c-6.967,0-10.45-3.824-10.45-11.472c0-3.805,0.947-6.711,2.844-8.719
		c1.895-2.01,4.61-3.014,8.146-3.014c2.59,0,4.912,0.508,6.967,1.521l-1.801,4.726c-0.961-0.388-1.855-0.703-2.684-0.951
		c-0.828-0.246-1.654-0.369-2.482-0.369c-3.176,0-4.764,2.254-4.764,6.766c0,4.377,1.588,6.566,4.764,6.566
		c1.175,0,2.264-0.156,3.264-0.471c1.002-0.312,2.002-0.804,3.004-1.472v5.226c-0.988,0.627-1.985,1.061-2.994,1.301
		C267.223,339.614,265.951,339.736,264.417,339.736z"/>
	<path fill="#FFFFFF" d="M285.839,334.871c1.067,0,2.349-0.232,3.845-0.701v4.545c-1.521,0.683-3.392,1.021-5.605,1.021
		c-2.443,0-4.223-0.617-5.336-1.853c-1.114-1.234-1.672-3.086-1.672-5.557v-10.789h-2.922v-2.584l3.362-2.041l1.763-4.725h3.902
		v4.764h6.268v4.586h-6.268v10.789c0,0.869,0.243,1.51,0.73,1.922C284.395,334.664,285.038,334.871,285.839,334.871z"/>
	<path fill="#FFFFFF" d="M322.594,339.736c-2.63,0-4.693-1.021-6.195-3.062c-1.502-2.043-2.252-4.873-2.252-8.488
		c0-3.672,0.764-6.53,2.291-8.579c1.528-2.048,3.635-3.072,6.316-3.072c2.814,0,4.965,1.094,6.446,3.283h0.2
		c-0.309-1.668-0.461-3.156-0.461-4.466v-7.166h6.125v31.15h-4.684l-1.182-2.902h-0.26
		C327.552,338.635,325.438,339.736,322.594,339.736z M324.734,334.871c1.562,0,2.707-0.453,3.435-1.361s1.124-2.449,1.19-4.625
		v-0.66c0-2.401-0.369-4.123-1.11-5.164c-0.74-1.041-1.944-1.562-3.613-1.562c-1.36,0-2.419,0.578-3.173,1.732
		c-0.755,1.153-1.132,2.831-1.132,5.034c0,2.201,0.381,3.854,1.142,4.953C322.232,334.32,323.32,334.871,324.734,334.871z"/>
	<path fill="#FFFFFF" d="M355.666,339.336l-1.182-3.043h-0.159c-1.028,1.295-2.087,2.191-3.175,2.691
		c-1.088,0.502-2.506,0.752-4.254,0.752c-2.148,0-3.84-0.613-5.074-1.843c-1.234-1.229-1.853-2.977-1.853-5.245
		c0-2.375,0.831-4.127,2.492-5.255c1.662-1.129,4.167-1.752,7.519-1.872l3.883-0.119v-0.98c0-2.27-1.16-3.404-3.482-3.404
		c-1.789,0-3.891,0.541-6.306,1.621l-2.022-4.123c2.575-1.348,5.432-2.021,8.568-2.021c3.003,0,5.306,0.652,6.906,1.961
		c1.602,1.309,2.402,3.297,2.402,5.967v14.914L355.666,339.336L355.666,339.336z M353.864,328.965l-2.362,0.08
		c-1.775,0.055-3.097,0.375-3.964,0.961c-0.868,0.588-1.302,1.482-1.302,2.685c0,1.721,0.988,2.581,2.964,2.581
		c1.414,0,2.545-0.405,3.394-1.221c0.848-0.814,1.271-1.895,1.271-3.244V328.965L353.864,328.965z"/>
	<path fill="#FFFFFF" d="M363.014,316.953h6.687l4.224,12.594c0.361,1.094,0.607,2.389,0.741,3.883h0.12
		c0.146-1.375,0.434-2.67,0.861-3.883l4.144-12.594h6.546l-9.469,25.246c-0.868,2.334-2.105,4.084-3.715,5.244
		c-1.607,1.162-3.485,1.741-5.635,1.741c-1.055,0-2.09-0.112-3.104-0.34V344c0.732,0.174,1.534,0.26,2.402,0.26
		c1.08,0,2.024-0.33,2.832-0.99c0.808-0.659,1.438-1.657,1.893-2.991l0.359-1.103L363.014,316.953z"/>
	<path fill="#FFFFFF" d="M409.618,334.871c1.066,0,2.349-0.232,3.844-0.701v4.545c-1.521,0.683-3.391,1.021-5.604,1.021
		c-2.443,0-4.223-0.617-5.336-1.853c-1.114-1.234-1.673-3.086-1.673-5.557v-10.789h-2.922v-2.584l3.363-2.041l1.762-4.725h3.903
		v4.764h6.267v4.586h-6.267v10.789c0,0.869,0.243,1.51,0.729,1.922C408.173,334.664,408.817,334.871,409.618,334.871z"/>
	<path fill="#FFFFFF" d="M438.325,328.105c0,3.643-0.961,6.491-2.883,8.547c-1.923,2.057-4.599,3.084-8.027,3.084
		c-2.149,0-4.045-0.472-5.687-1.412c-1.643-0.941-2.902-2.291-3.783-4.053c-0.881-1.763-1.321-3.818-1.321-6.166
		c0-3.658,0.954-6.5,2.863-8.529c1.907-2.029,4.591-3.043,8.047-3.043c2.148,0,4.045,0.467,5.686,1.402
		c1.644,0.934,2.903,2.274,3.784,4.022S438.325,325.756,438.325,328.105z M422.851,328.105c0,2.215,0.363,3.891,1.092,5.022
		c0.727,1.135,1.911,1.703,3.554,1.703c1.628,0,2.799-0.564,3.513-1.693c0.714-1.127,1.071-2.805,1.071-5.032
		c0-2.218-0.36-3.877-1.081-4.986c-0.721-1.107-1.901-1.66-3.544-1.66c-1.628,0-2.803,0.549-3.523,1.65
		C423.212,324.21,422.851,325.875,422.851,328.105z"/>
	<path fill="#FFFFFF" d="M123.464,376.393c0,2.742-0.953,4.832-2.859,6.269c-1.906,1.436-4.757,2.154-8.553,2.154
		c-1.946,0-3.605-0.134-4.977-0.396c-1.372-0.264-2.656-0.65-3.853-1.16v-6.028c1.355,0.637,2.883,1.172,4.582,1.602
		c1.698,0.432,3.194,0.646,4.485,0.646c2.648,0,3.973-0.766,3.973-2.297c0-0.573-0.176-1.041-0.527-1.399
		c-0.351-0.357-0.957-0.767-1.818-1.219c-0.861-0.455-2.01-0.986-3.445-1.593c-2.057-0.86-3.568-1.657-4.533-2.393
		c-0.966-0.734-1.667-1.574-2.105-2.523c-0.439-0.948-0.658-2.117-0.658-3.506c0-2.377,0.921-4.215,2.764-5.516
		c1.842-1.299,4.454-1.949,7.836-1.949c3.222,0,6.355,0.701,9.402,2.105l-2.201,5.264c-1.34-0.574-2.592-1.045-3.756-1.412
		c-1.165-0.367-2.354-0.549-3.565-0.549c-2.153,0-3.229,0.582-3.229,1.746c0,0.653,0.347,1.221,1.04,1.699
		c0.694,0.479,2.214,1.188,4.558,2.129c2.09,0.846,3.621,1.635,4.594,2.368c0.974,0.732,1.691,1.578,2.154,2.535
		C123.232,373.928,123.464,375.068,123.464,376.393z"/>
	<path fill="#FFFFFF" d="M128.848,350.672c0-2.377,1.323-3.563,3.971-3.563s3.973,1.188,3.973,3.563
		c0,1.133-0.332,2.014-0.993,2.646c-0.662,0.629-1.655,0.944-2.979,0.944C130.171,354.262,128.848,353.064,128.848,350.672z
		 M136.455,384.336h-7.297v-26.75h7.297V384.336z"/>
	<path fill="#FFFFFF" d="M155.382,379c1.275,0,2.807-0.279,4.594-0.838v5.432c-1.818,0.814-4.052,1.222-6.699,1.222
		c-2.92,0-5.045-0.738-6.377-2.214c-1.332-1.477-1.998-3.688-1.998-6.641v-12.895h-3.492v-3.089l4.02-2.438l2.105-5.646h4.665v5.693
		h7.489v5.48H152.2v12.895c0,1.037,0.291,1.803,0.873,2.297C153.655,378.752,154.425,379,155.382,379z"/>
	<path fill="#FFFFFF" d="M192.992,357.084c3.158,0,5.631,1.232,7.417,3.697c1.786,2.463,2.68,5.842,2.68,10.133
		c0,4.418-0.921,7.838-2.764,10.264c-1.842,2.424-4.351,3.638-7.524,3.638c-3.143,0-5.606-1.142-7.394-3.423h-0.502l-1.221,2.943
		h-5.574v-37.229h7.297v8.659c0,1.103-0.096,2.863-0.287,5.289h0.287C187.114,358.408,189.643,357.084,192.992,357.084z
		 M190.647,362.922c-1.803,0-3.118,0.555-3.947,1.662c-0.83,1.109-1.261,2.939-1.293,5.492v0.789c0,2.871,0.427,4.93,1.28,6.174
		s2.205,1.865,4.056,1.865c1.499,0,2.691-0.689,3.577-2.07c0.885-1.379,1.327-3.385,1.327-6.016c0-2.634-0.446-4.607-1.34-5.922
		C193.415,363.58,192.194,362.922,190.647,362.922z"/>
	<path fill="#FFFFFF" d="M205.29,357.586h7.991l5.048,15.051c0.432,1.308,0.727,2.854,0.886,4.642h0.144
		c0.176-1.644,0.519-3.189,1.029-4.642l4.952-15.051h7.823l-11.316,30.172c-1.037,2.791-2.517,4.881-4.438,6.269
		c-1.922,1.389-4.167,2.082-6.735,2.082c-1.26,0-2.496-0.138-3.708-0.406v-5.791c0.877,0.207,1.834,0.311,2.871,0.311
		c1.292,0,2.42-0.395,3.386-1.184c0.965-0.789,1.719-1.982,2.261-3.576l0.431-1.315L205.29,357.586z"/>
	<path fill="#FFFFFF" d="M260.989,379c1.274,0,2.807-0.279,4.594-0.838v5.432c-1.817,0.814-4.052,1.222-6.699,1.222
		c-2.92,0-5.045-0.738-6.377-2.214c-1.332-1.477-1.998-3.688-1.998-6.641v-12.895h-3.491v-3.089l4.02-2.438l2.105-5.646h4.664v5.693
		h7.489v5.48h-7.489v12.895c0,1.037,0.291,1.803,0.873,2.297S260.032,379,260.989,379z"/>
	<path fill="#FFFFFF" d="M295.682,384.336h-7.298v-15.623c0-3.861-1.436-5.791-4.307-5.791c-2.042,0-3.519,0.693-4.427,2.082
		c-0.909,1.387-1.364,3.637-1.364,6.746v12.586h-7.298v-37.229h7.298v7.584c0,0.59-0.056,1.979-0.167,4.164l-0.167,2.151h0.383
		c1.627-2.615,4.211-3.924,7.752-3.924c3.142,0,5.526,0.846,7.153,2.537c1.627,1.688,2.439,4.115,2.439,7.272v17.443H295.682z"/>
	<path fill="#FFFFFF" d="M315.3,384.814c-4.307,0-7.672-1.189-10.097-3.564c-2.426-2.377-3.637-5.742-3.637-10.098
		c0-4.482,1.119-7.947,3.36-10.396c2.241-2.447,5.341-3.672,9.296-3.672c3.78,0,6.723,1.076,8.828,3.23
		c2.105,2.151,3.158,5.127,3.158,8.924v3.541h-17.251c0.08,2.074,0.694,3.692,1.843,4.856c1.149,1.164,2.76,1.746,4.833,1.746
		c1.611,0,3.136-0.168,4.57-0.502c1.437-0.336,2.935-0.869,4.498-1.604v5.646c-1.276,0.639-2.642,1.113-4.093,1.424
		C319.159,384.657,317.391,384.814,315.3,384.814z M314.271,362.275c-1.549,0-2.761,0.489-3.638,1.473
		c-0.878,0.979-1.38,2.371-1.508,4.174h10.24c-0.032-1.803-0.503-3.193-1.412-4.174
		C317.047,362.766,315.818,362.275,314.271,362.275z"/>
	<path fill="#FFFFFF" d="M359.658,363.066h-6.316v21.27h-7.298v-21.27h-4.021v-3.519l4.021-1.963v-1.961
		c0-3.047,0.75-5.271,2.25-6.676c1.499-1.404,3.899-2.105,7.201-2.105c2.521,0,4.762,0.375,6.723,1.125l-1.864,5.359
		c-1.469-0.463-2.824-0.693-4.068-0.693c-1.036,0-1.786,0.308-2.248,0.92c-0.463,0.615-0.694,1.4-0.694,2.357v1.674h6.316
		L359.658,363.066L359.658,363.066z M363.534,350.672c0-2.377,1.323-3.563,3.972-3.563s3.973,1.188,3.973,3.563
		c0,1.133-0.332,2.014-0.994,2.646c-0.662,0.629-1.653,0.944-2.979,0.944C364.857,354.262,363.534,353.064,363.534,350.672z
		 M371.143,384.336h-7.297v-26.75h7.297V384.336z"/>
	<path fill="#FFFFFF" d="M393.704,357.084c0.989,0,1.812,0.072,2.465,0.215l-0.551,6.844c-0.591-0.159-1.308-0.239-2.153-0.239
		c-2.329,0-4.145,0.6-5.443,1.795c-1.299,1.196-1.949,2.871-1.949,5.024v13.613h-7.297v-26.75h5.526l1.076,4.498h0.358
		c0.83-1.498,1.949-2.707,3.361-3.625C390.51,357.543,392.045,357.084,393.704,357.084z"/>
	<path fill="#FFFFFF" d="M413.132,384.814c-4.307,0-7.672-1.189-10.097-3.564c-2.425-2.377-3.637-5.742-3.637-10.098
		c0-4.482,1.119-7.947,3.36-10.396c2.241-2.447,5.34-3.672,9.295-3.672c3.781,0,6.725,1.076,8.829,3.23
		c2.105,2.151,3.158,5.127,3.158,8.924v3.541H406.79c0.08,2.074,0.694,3.692,1.843,4.856c1.149,1.164,2.76,1.746,4.833,1.746
		c1.611,0,3.135-0.168,4.57-0.502c1.436-0.336,2.935-0.869,4.498-1.604v5.646c-1.276,0.639-2.642,1.113-4.092,1.424
		C416.991,384.657,415.222,384.814,413.132,384.814z M412.104,362.275c-1.548,0-2.76,0.489-3.637,1.473
		c-0.878,0.979-1.38,2.371-1.508,4.174h10.24c-0.032-1.803-0.502-3.193-1.412-4.174C414.879,362.766,413.65,362.275,412.104,362.275
		z"/>
	<path fill="#FFFFFF" d="M428.946,380.914c0-1.34,0.358-2.354,1.077-3.039c0.718-0.685,1.763-1.027,3.134-1.027
		c1.324,0,2.349,0.351,3.075,1.054c0.726,0.7,1.089,1.705,1.089,3.014c0,1.26-0.367,2.254-1.103,2.979
		c-0.732,0.728-1.754,1.091-3.062,1.091c-1.34,0-2.376-0.355-3.109-1.066C429.312,383.207,428.946,382.207,428.946,380.914z
		 M436.101,372.732h-5.838l-1.221-23.377h8.279L436.101,372.732z"/>
</g>
</svg>
