<?xml version="1.0" encoding="utf-8"?>
<!-- Generator: Adobe Illustrator 16.0.0, SVG Export Plug-In . SVG Version: 6.00 Build 0)  -->
<!DOCTYPE svg PUBLIC "-//W3C//DTD SVG 1.1//EN" "http://www.w3.org/Graphics/SVG/1.1/DTD/svg11.dtd">
<svg version="1.1" id="Capa_1" xmlns="http://www.w3.org/2000/svg" xmlns:xlink="http://www.w3.org/1999/xlink" x="0px" y="0px"
	 width="450px" height="400px" viewBox="0 0 450 400" enable-background="new 0 0 450 400" xml:space="preserve">
<g id="Capa_1_1_">
	<rect x="116.569" y="308.786" fill="none" width="328.336" height="85.214"/>
	<g enable-background="new    ">
		<path fill="#FFFFFF" d="M225.912,319.808c0,3.15-0.984,5.56-2.953,7.229c-1.969,1.668-4.768,2.502-8.398,2.502h-2.663v10.41
			h-6.206v-29.27h9.349c3.55,0,6.249,0.766,8.098,2.292C224.988,314.499,225.912,316.778,225.912,319.808z M211.898,324.452h2.042
			c1.908,0,3.336-0.377,4.284-1.131c0.947-0.754,1.421-1.854,1.421-3.294c0-1.454-0.397-2.528-1.191-3.224
			c-0.794-0.692-2.039-1.041-3.734-1.041h-2.823L211.898,324.452L211.898,324.452z"/>
		<path fill="#FFFFFF" d="M241.087,340.348c-3.604,0-6.42-0.994-8.448-2.981c-2.029-1.989-3.043-4.806-3.043-8.449
			c0-3.75,0.938-6.649,2.812-8.698c1.875-2.048,4.468-3.072,7.777-3.072c3.164,0,5.625,0.9,7.388,2.702
			c1.762,1.803,2.643,4.291,2.643,7.468v2.963h-14.435c0.066,1.734,0.58,3.091,1.542,4.063c0.961,0.976,2.309,1.461,4.044,1.461
			c1.348,0,2.623-0.14,3.824-0.42s2.455-0.728,3.764-1.342v4.725c-1.068,0.534-2.209,0.933-3.424,1.191
			C244.316,340.218,242.835,340.348,241.087,340.348z M240.227,321.489c-1.295,0-2.31,0.41-3.043,1.23s-1.154,1.985-1.262,3.493
			h8.568c-0.027-1.508-0.42-2.673-1.182-3.493C242.549,321.899,241.521,321.489,240.227,321.489z"/>
		<path fill="#FFFFFF" d="M267.673,317.145c0.827,0,1.515,0.062,2.062,0.182l-0.459,5.726c-0.494-0.133-1.096-0.2-1.803-0.2
			c-1.949,0-3.467,0.501-4.555,1.501c-1.088,1.003-1.631,2.402-1.631,4.205v11.392h-6.105v-22.382h4.623l0.901,3.764h0.3
			c0.694-1.254,1.633-2.266,2.812-3.033C265,317.529,266.285,317.145,267.673,317.145z"/>
		<path fill="#FFFFFF" d="M286.171,322.15h-5.285v17.797h-6.106V322.15h-3.362v-2.943l3.362-1.642v-1.643
			c0-2.549,0.628-4.411,1.884-5.586c1.254-1.174,3.263-1.762,6.024-1.762c2.108,0,3.984,0.313,5.625,0.94L286.752,314
			c-1.229-0.387-2.363-0.58-3.404-0.58c-0.867,0-1.494,0.257-1.881,0.771c-0.388,0.514-0.581,1.171-0.581,1.972v1.401h5.285V322.15z
			"/>
		<path fill="#FFFFFF" d="M299.805,340.348c-3.604,0-6.42-0.994-8.449-2.981c-2.027-1.989-3.043-4.806-3.043-8.449
			c0-3.75,0.938-6.649,2.812-8.698c1.875-2.048,4.469-3.072,7.777-3.072c3.164,0,5.627,0.9,7.389,2.702
			c1.762,1.803,2.643,4.291,2.643,7.468v2.963h-14.435c0.065,1.734,0.581,3.091,1.542,4.063c0.961,0.976,2.309,1.461,4.043,1.461
			c1.348,0,2.623-0.14,3.824-0.42s2.455-0.728,3.764-1.342v4.725c-1.068,0.534-2.209,0.933-3.424,1.191
			C303.033,340.218,301.553,340.348,299.805,340.348z M298.943,321.489c-1.295,0-2.31,0.41-3.043,1.23
			c-0.734,0.82-1.154,1.985-1.262,3.493h8.567c-0.026-1.508-0.42-2.673-1.181-3.493
			C301.266,321.899,300.238,321.489,298.943,321.489z"/>
		<path fill="#FFFFFF" d="M322.986,340.348c-6.967,0-10.449-3.823-10.449-11.471c0-3.805,0.947-6.71,2.842-8.719
			c1.896-2.009,4.611-3.015,8.148-3.015c2.589,0,4.91,0.509,6.967,1.521l-1.803,4.725c-0.961-0.387-1.854-0.703-2.683-0.949
			c-0.827-0.247-1.655-0.37-2.481-0.37c-3.178,0-4.766,2.255-4.766,6.766c0,4.378,1.588,6.566,4.766,6.566
			c1.174,0,2.262-0.156,3.264-0.471c1-0.312,2.002-0.804,3.002-1.472v5.225c-0.986,0.628-1.984,1.062-2.992,1.303
			C325.793,340.227,324.521,340.348,322.986,340.348z"/>
		<path fill="#FFFFFF" d="M344.408,335.482c1.066,0,2.348-0.232,3.844-0.7v4.544c-1.521,0.682-3.391,1.021-5.605,1.021
			c-2.442,0-4.222-0.616-5.336-1.852c-1.113-1.235-1.672-3.086-1.672-5.556v-10.79h-2.922v-2.583l3.363-2.042l1.762-4.726h3.903
			v4.766h6.267v4.585h-6.267v10.79c0,0.867,0.243,1.509,0.729,1.922C342.963,335.276,343.607,335.482,344.408,335.482z"/>
		<path fill="#FFFFFF" d="M381.164,340.348c-2.63,0-4.695-1.021-6.197-3.062c-1.5-2.043-2.252-4.872-2.252-8.488
			c0-3.671,0.764-6.53,2.293-8.579c1.527-2.048,3.633-3.073,6.316-3.073c2.814,0,4.965,1.096,6.445,3.283h0.201
			c-0.309-1.668-0.462-3.154-0.462-4.464v-7.167h6.126v31.15h-4.685l-1.183-2.902h-0.26
			C386.121,339.246,384.006,340.348,381.164,340.348z M383.307,335.482c1.562,0,2.705-0.453,3.433-1.361
			c0.729-0.907,1.125-2.448,1.19-4.624v-0.661c0-2.402-0.369-4.123-1.111-5.164c-0.739-1.041-1.944-1.562-3.612-1.562
			c-1.36,0-2.419,0.577-3.172,1.731c-0.755,1.154-1.132,2.832-1.132,5.035c0,2.201,0.38,3.854,1.142,4.954
			C380.803,334.933,381.891,335.482,383.307,335.482z"/>
		<path fill="#FFFFFF" d="M414.236,339.947l-1.183-3.043h-0.16c-1.026,1.295-2.086,2.191-3.174,2.691
			c-1.088,0.501-2.506,0.751-4.254,0.751c-2.147,0-3.84-0.612-5.074-1.842c-1.233-1.228-1.852-2.976-1.852-5.245
			c0-2.375,0.83-4.127,2.492-5.255s4.167-1.752,7.518-1.872l3.883-0.12v-0.979c0-2.271-1.159-3.404-3.481-3.404
			c-1.789,0-3.892,0.541-6.308,1.622l-2.021-4.124c2.575-1.348,5.432-2.021,8.568-2.021c3.002,0,5.305,0.652,6.905,1.961
			c1.603,1.309,2.402,3.297,2.402,5.967v14.914L414.236,339.947L414.236,339.947z M412.434,329.577l-2.36,0.08
			c-1.775,0.054-3.099,0.374-3.965,0.961c-0.867,0.588-1.302,1.48-1.302,2.683c0,1.723,0.987,2.582,2.963,2.582
			c1.414,0,2.546-0.406,3.394-1.221c0.848-0.813,1.271-1.896,1.271-3.243V329.577L412.434,329.577z"/>
		<path fill="#FFFFFF" d="M421.583,317.565h6.687l4.225,12.593c0.361,1.094,0.606,2.389,0.741,3.883h0.12
			c0.146-1.374,0.434-2.669,0.86-3.883l4.145-12.593h6.546l-9.469,25.244c-0.868,2.335-2.105,4.084-3.715,5.244
			c-1.607,1.162-3.485,1.742-5.635,1.742c-1.055,0-2.09-0.113-3.104-0.34v-4.846c0.733,0.174,1.534,0.261,2.401,0.261
			c1.081,0,2.024-0.33,2.833-0.991c0.808-0.66,1.438-1.658,1.893-2.992l0.359-1.102L421.583,317.565z"/>
	</g>
	<g enable-background="new    ">
		<path fill="#FFFFFF" d="M174.568,363.678h-6.316v21.271h-7.297v-21.271h-4.02v-3.518l4.02-1.962v-1.962
			c0-3.047,0.75-5.271,2.249-6.677c1.499-1.402,3.9-2.104,7.202-2.104c2.52,0,4.761,0.375,6.723,1.125l-1.866,5.359
			c-1.468-0.464-2.823-0.693-4.067-0.693c-1.037,0-1.787,0.307-2.249,0.921c-0.463,0.614-0.694,1.399-0.694,2.356v1.675h6.316
			L174.568,363.678L174.568,363.678z"/>
		<path fill="#FFFFFF" d="M203.063,371.525c0,4.354-1.148,7.76-3.445,10.216c-2.297,2.456-5.495,3.685-9.594,3.685
			c-2.568,0-4.833-0.562-6.795-1.687s-3.469-2.739-4.522-4.846c-1.053-2.105-1.579-4.562-1.579-7.368
			c0-4.371,1.14-7.77,3.421-10.193c2.281-2.424,5.487-3.637,9.618-3.637c2.568,0,4.833,0.559,6.795,1.676
			c1.962,1.116,3.469,2.719,4.522,4.809C202.537,366.27,203.063,368.718,203.063,371.525z M184.569,371.525
			c0,2.646,0.435,4.648,1.304,6.005c0.869,1.354,2.285,2.034,4.247,2.034c1.946,0,3.346-0.675,4.199-2.022
			c0.854-1.348,1.28-3.354,1.28-6.017c0-2.648-0.431-4.635-1.292-5.958c-0.861-1.324-2.273-1.985-4.235-1.985
			c-1.946,0-3.35,0.657-4.211,1.974C185,366.871,184.569,368.861,184.569,371.525z"/>
		<path fill="#FFFFFF" d="M224.022,357.695c0.989,0,1.81,0.071,2.464,0.216l-0.551,6.843c-0.589-0.159-1.308-0.239-2.152-0.239
			c-2.329,0-4.143,0.6-5.443,1.794c-1.3,1.197-1.95,2.871-1.95,5.025v13.613h-7.297v-26.749h5.527l1.077,4.498h0.359
			c0.829-1.499,1.95-2.707,3.362-3.625C220.828,358.154,222.363,357.695,224.022,357.695z"/>
		<path fill="#FFFFFF" d="M261.061,384.947l-1.412-3.638h-0.19c-1.229,1.548-2.492,2.62-3.793,3.219
			c-1.3,0.599-2.994,0.896-5.084,0.896c-2.567,0-4.59-0.732-6.065-2.201c-1.475-1.468-2.213-3.557-2.213-6.269
			c0-2.839,0.993-4.934,2.979-6.28c1.985-1.348,4.979-2.094,8.983-2.237l4.643-0.144v-1.172c0-2.712-1.389-4.068-4.163-4.068
			c-2.138,0-4.649,0.646-7.536,1.938l-2.417-4.93c3.078-1.61,6.491-2.415,10.24-2.415c3.589,0,6.341,0.78,8.255,2.344
			c1.914,1.562,2.871,3.939,2.871,7.131v17.824L261.061,384.947L261.061,384.947z M258.906,372.554l-2.823,0.097
			c-2.122,0.062-3.7,0.445-4.737,1.147s-1.555,1.771-1.555,3.206c0,2.059,1.18,3.086,3.541,3.086c1.689,0,3.042-0.486,4.055-1.459
			c1.014-0.973,1.521-2.265,1.521-3.876L258.906,372.554L258.906,372.554z"/>
		<path fill="#FFFFFF" d="M301.781,384.947l-8.422-27.443h-0.215c0.303,5.583,0.453,9.309,0.453,11.174v16.271h-6.627v-34.979
			h10.098l8.277,26.749h0.145l8.779-26.749h10.098v34.979h-6.914v-16.558c0-0.78,0.012-1.683,0.035-2.703s0.132-3.731,0.322-8.135
			h-0.215l-9.021,27.396L301.781,384.947L301.781,384.947z"/>
		<path fill="#FFFFFF" d="M356.906,371.525c0,4.354-1.148,7.76-3.445,10.216s-5.495,3.685-9.594,3.685
			c-2.568,0-4.834-0.562-6.795-1.687c-1.963-1.125-3.471-2.739-4.522-4.846c-1.052-2.105-1.579-4.562-1.579-7.368
			c0-4.371,1.141-7.77,3.422-10.193c2.28-2.424,5.486-3.637,9.617-3.637c2.568,0,4.834,0.559,6.795,1.676
			c1.963,1.116,3.471,2.719,4.522,4.809S356.906,368.718,356.906,371.525z M338.412,371.525c0,2.646,0.434,4.648,1.304,6.005
			c0.869,1.354,2.284,2.034,4.247,2.034c1.945,0,3.346-0.675,4.198-2.022c0.854-1.348,1.28-3.354,1.28-6.017
			c0-2.648-0.432-4.635-1.293-5.958c-0.86-1.324-2.271-1.985-4.234-1.985c-1.945,0-3.35,0.657-4.211,1.974
			C338.842,366.871,338.412,368.861,338.412,371.525z"/>
		<path fill="#FFFFFF" d="M369.3,384.947l-10.192-26.749h7.634l5.168,15.241c0.573,1.93,0.933,3.756,1.075,5.479h0.145
			c0.079-1.531,0.438-3.357,1.077-5.479l5.144-15.241h7.633l-10.191,26.749H369.3z"/>
		<path fill="#FFFFFF" d="M390.498,351.283c0-2.376,1.324-3.564,3.971-3.564c2.648,0,3.974,1.188,3.974,3.564
			c0,1.133-0.332,2.015-0.992,2.645c-0.662,0.63-1.656,0.945-2.98,0.945C391.822,354.873,390.498,353.676,390.498,351.283z
			 M398.105,384.947h-7.297v-26.749h7.297V384.947z"/>
		<path fill="#FFFFFF" d="M417.869,385.426c-4.308,0-7.672-1.188-10.098-3.563c-2.425-2.377-3.638-5.742-3.638-10.099
			c0-4.48,1.121-7.945,3.361-10.396c2.242-2.448,5.34-3.673,9.295-3.673c3.781,0,6.725,1.077,8.83,3.229
			c2.104,2.153,3.158,5.128,3.158,8.924v3.541h-17.252c0.079,2.074,0.694,3.693,1.844,4.857c1.148,1.164,2.76,1.746,4.832,1.746
			c1.61,0,3.135-0.167,4.569-0.502c1.436-0.335,2.937-0.869,4.498-1.604v5.646c-1.274,0.639-2.641,1.113-4.092,1.424
			C421.729,385.271,419.959,385.426,417.869,385.426z M416.84,362.888c-1.547,0-2.76,0.49-3.637,1.473
			c-0.877,0.979-1.379,2.372-1.508,4.175h10.239c-0.03-1.803-0.502-3.194-1.411-4.175
			C419.615,363.378,418.387,362.888,416.84,362.888z"/>
		<path fill="#FFFFFF" d="M433.684,381.525c0-1.341,0.359-2.354,1.078-3.038c0.717-0.687,1.763-1.028,3.133-1.028
			c1.324,0,2.351,0.351,3.076,1.053c0.726,0.701,1.088,1.706,1.088,3.015c0,1.261-0.366,2.254-1.102,2.979
			c-0.732,0.727-1.754,1.089-3.062,1.089c-1.34,0-2.375-0.354-3.108-1.064C434.051,383.819,433.684,382.818,433.684,381.525z
			 M440.838,373.344H435l-1.221-23.376h8.278L440.838,373.344z"/>
	</g>
	<path fill="#FFFFFF" stroke="#000000" stroke-width="7" stroke-miterlimit="10" d="M44.486,202.912
		c121.838,1.893,239.389,0,239.389,0s48.177-4.074,48.432-53.644c0.254-49.57-54.279-46.36-54.279-46.36
		s22.244-51.895-30.688-51.493c-13.389-42.523-20.534-42-82.306-46.889C99.057,6.365,88.397,41.444,88.397,41.444
		S34.312,29.909,37.04,94.942C37.04,94.942-43.046,153.513,44.486,202.912z"/>
	
		<line fill="none" stroke="#FFFFFF" stroke-width="9" stroke-linecap="round" stroke-miterlimit="10" x1="72.5" y1="226" x2="72.5" y2="292"/>
	
		<line fill="none" stroke="#FFFFFF" stroke-width="9" stroke-linecap="round" stroke-miterlimit="10" x1="113.5" y1="226" x2="113.5" y2="262"/>
	<polyline fill="#FFFFFF" stroke="#FFFFFF" stroke-width="9" stroke-linecap="round" stroke-miterlimit="10" points="
		184.541,220.831 154.478,283.5 187,283.5 163.297,328.612 	"/>
	
		<line fill="none" stroke="#FFFFFF" stroke-width="9" stroke-linecap="round" stroke-miterlimit="10" x1="225.5" y1="226" x2="225.5" y2="271"/>
	
		<line fill="none" stroke="#FFFFFF" stroke-width="9" stroke-linecap="round" stroke-miterlimit="10" x1="266.5" y1="226" x2="266.5" y2="248"/>
	<path d="M76,71h185v30.243c0,0-11,6.149-14,14.757h-74c0,0-4.395-19.386-10.447-19.457C156.501,96.472,152,116,152,116H88
		c-0.344-12.686-12-14.585-12-14.585V71z"/>
	<line fill="none" x1="152" y1="116" x2="88" y2="116"/>
	<path fill="#FFFFFF" d="M144,98.307c0,5.354-5.373,9.693-12,9.693h-30c-6.627,0-12-4.34-12-9.693v-9.693C90,83.26,95.373,79,102,79
		h30c6.627,0,12,4.26,12,9.613V98.307z"/>
	<path fill="#FFFFFF" d="M238,98.307c0,5.354-5.373,9.693-12,9.693h-30c-6.627,0-12-4.34-12-9.693v-9.693
		C184,83.26,189.373,79,196,79h30c6.627,0,12,4.26,12,9.613V98.307z"/>
	<g>
		<path fill="#FFFFFF" d="M116.819,159.588c0,0,48.71,15.745,91.184,0c6.672-6.999,0,0.922,0,0.922l-13.123,65.504
			c0,0-25.918,13.461-61.134,2.971L116.819,159.588z"/>
		<g>
			<path d="M208.302,144.467c0-1.124-0.374-2.124-0.874-3.124c-0.875-1.625-2.5-2.75-4.249-3.249c-1.5-0.375-3-0.375-4.374,0.25
				c-1-1.25-2.374-2.125-3.874-2.5c-0.625-0.125-1.375-0.25-2.124-0.25c-1.5,0-2.875,0.5-4.125,1.25
				c0.125-0.5,0.125-1.125,0.125-1.75c-0.25-3.874-3.5-6.873-7.498-6.623c-1.75,0.125-3.249,0.875-4.499,1.999
				c-1.124-1.124-2.624-1.874-4.248-2.124l0,0c-1-2.125-2.999-3.624-5.249-3.999c-0.375,0-0.75-0.125-1.125-0.125
				c-3.499,0-6.373,2.499-6.873,5.873l0,0c-0.125,0-0.125,0.125-0.25,0.125s-0.125,0-0.25,0l0,0
				c-1.249-1.874-3.499-3.124-5.873-3.124c-1.999,0-3.749,0.75-4.999,2.124c-0.875-0.5-1.999-0.875-3.124-0.875
				c-0.75,0-1.375,0.125-2,0.375c-0.375,0.125-0.875,0.375-1.25,0.625c-1.5-0.5-3.124-0.5-4.499,0
				c-1.499,0.499-2.749,1.499-3.499,2.874c-0.625,0-1.249,0.125-1.874,0.375c-2.375,0.75-3.999,2.749-4.624,4.999
				c-1.125-0.75-2.5-1.25-3.999-1.25c-3.749,0-6.873,3-6.998,6.623c-1.75,1.124-2.874,2.999-3.124,4.999
				c-1.125,1.374-1.75,2.874-1.75,4.499c0,0.875,0.125,1.624,0.5,2.374l0,0l16.619,71.977l0.125,0.375
				c2.624,6.998,20.243,9.496,34.614,9.496c14.245,0,31.864-2.498,34.614-9.621l0.124-0.25l16.37-71.727
				c0.374-0.875,0.5-1.25,0.5-2.499C214.675,149.215,212.176,146.591,208.302,144.467z M192.808,138.719
				c0.375,0,0.874,0,1.249,0.125c1.25,0.375,2.25,1.124,2.875,2.249l0.874,1.5l1.375-1c1-0.625,2.125-0.875,3.249-0.5
				c1,0.25,1.874,0.875,2.374,1.875c0.5,0.875,0.625,1.999,0.375,2.999c0,0.125-0.125,0.375-0.25,0.5l-0.75,1.625l1.75,0.5
				c0.75,0.25,1.5,0.75,1.874,1.5c0.374,0.75,0.5,1.625,0.25,2.375c-0.375,1.25-1.5,2.249-2.874,2.249l-1.374,0.125l-0.125,1.25
				c-1.75,0.75-4.124,1.5-6.873,2.249c-0.375-0.5-0.75-1.125-0.875-1.874l0,0c0.125-0.625,0-1.25,0-1.875
				c0.75-0.75,1.25-1.749,1.624-2.749c0.5-1.75,0.375-3.749-0.5-5.374c-0.75-1.5-2.124-2.624-3.624-3.249
				c-0.874-1.375-2.25-2.375-3.748-2.75c-0.125,0-0.251,0-0.375-0.125C190.059,139.344,191.433,138.719,192.808,138.719z
				 M186.56,143.468c0.125,0,0.374-0.125,0.5-0.125s0.125,0,0.25,0s0.375,0,0.5,0s0.125,0,0.25,0h0.125l0,0
				c0.249,0,0.375,0.125,0.625,0.125c0.624,0.25,1.124,0.5,1.624,0.999c0.375,0.375,0.75,1,1,1.5c0.25,0,0.5,0.125,0.75,0.125
				c2.125,0.625,3.25,2.749,2.624,4.873c-0.125,0.625-0.499,1.125-0.875,1.625c-0.375,0.375-0.874,0.75-1.5,1
				c0.75,0.999,1,2.249,0.625,3.499c-0.125,0.25-0.125,0.5-0.25,0.625c0,0.125-0.125,0.125-0.125,0.25l0,0l0,0
				c-0.125,0.125-0.125,0.25-0.25,0.375c0,0.125-0.125,0.125-0.125,0.25c-0.125,0.124-0.25,0.25-0.375,0.374l-0.125,0.125
				c-0.125,0.125-0.25,0.25-0.375,0.25l-0.124,0.125c-0.25,0.125-0.375,0.25-0.625,0.25h-0.125c-0.125,0-0.375,0.125-0.5,0.125
				s-0.125,0-0.25,0s-0.125,0-0.25,0s-0.125,0-0.25,0c-0.124,0-0.124,0-0.25,0c-0.25,0-0.5-0.125-0.75-0.125
				c-0.25-0.125-0.5-0.25-0.75-0.375c-0.125,0.25-0.25,0.375-0.375,0.5l-0.125,0.125c-0.125,0.125-0.125,0.25-0.25,0.375
				l-0.125,0.125l-0.125,0.125l0,0c-0.625,0.125-1.25,0.125-1.874,0.25c1.5-1.875,2.124-4.374,1.374-6.873
				c-0.5-1.5-1.499-2.75-2.749-3.625c0.125-0.125,0.25-0.375,0.375-0.5c0.25-0.25,0.625-0.5,0.875-0.625
				c-0.501-0.875-0.625-1.874-0.25-2.999c0.25-0.75,0.75-1.5,1.374-1.999c0.125-0.126,0.25-0.25,0.375-0.25l0.125-0.125
				c0.25-0.125,0.375-0.25,0.625-0.25C186.435,143.468,186.435,143.468,186.56,143.468z M176.938,134.72h0.875l0.375-0.875
				c0.624-1.25,1.874-2.125,3.248-2.125c0.125,0,0.125,0,0.25,0c2,0,3.749,1.625,3.874,3.624c0,0.625,0,1.125-0.25,1.75l-0.5,1.125
				l1.001,0.75c0.125,0.125,0.249,0.125,0.375,0.25c-0.25,0.375-0.5,0.875-0.625,1.375c-2.249,0.625-4.124,2.375-4.748,4.749
				c-0.125,0.25-0.125,0.5-0.25,0.75c-0.125,0-0.375,0-0.5,0c0-0.125,0-0.25,0-0.375c0,0,0,0,0-0.125v-0.125l0,0
				c-0.125-3.249-2.624-5.873-5.873-6.123c-0.125-0.375-0.25-0.75-0.375-1.125C173.813,136.345,175.063,134.846,176.938,134.72z
				 M151.197,161.211l-1.125,0.25h-0.125c-0.625,0-1.25-0.125-2-0.125c-1.499-0.625-2.499-2.125-2.249-3.749
				c0.25-1.875,1.999-3.249,3.999-3c0.25,0,0.375,0.125,0.625,0.125l1.25,0.5l0.625-1.249c0.5-1,1.75-1.625,2.875-1.5
				c0.125,0,0.25,0,0.25,0.125l1.125,0.25l0.625-0.875c0.75-1.125,2-1.75,3.374-1.5c1.874,0.25,3.249,2.125,2.875,3.999
				l-0.125,0.875l0.75,0.625c1.124,0.875,1.75,2.5,1.5,3.874c-0.125,0.75-0.5,1.5-1,2.125c-0.624,0-1.25,0-1.75,0
				c-4.124,0-7.872-0.125-11.496-0.375v-0.375H151.197z M136.826,159.712c-0.125-0.125-0.125-0.125-0.25-0.25
				s-0.125-0.25-0.25-0.375c0-0.125-0.125-0.125-0.125-0.25c-0.125-0.126-0.125-0.25-0.25-0.5c0-0.125-0.125-0.125-0.125-0.25
				c-0.125-0.25-0.125-0.5-0.125-0.75c0-0.375,0-0.625,0-0.875l0,0c0.125-0.625,0.25-1.125,0.625-1.625
				c0.125-0.25,0.375-0.5,0.5-0.75c-1-0.625-1.75-1.624-2-2.874c-0.25-2.124,1.25-4.124,3.375-4.374c0.25,0,0.624,0,0.874,0
				c0-0.875,0.375-1.75,1-2.5c0.625-0.749,1.375-1.124,2.375-1.249l0,0c0.25,0,0.375,0,0.625,0c0.125,0,0.25,0,0.25,0
				c0.125,0,0.25,0,0.375,0s0.25,0,0.25,0.125c0.125,0,0.25,0.125,0.375,0.125s0.125,0.125,0.25,0.125s0.25,0.125,0.375,0.125
				s0.125,0.125,0.25,0.125c0.125,0.125,0.25,0.125,0.25,0.25c0.125,0.124,0.125,0.124,0.25,0.25
				c0.125,0.124,0.125,0.249,0.25,0.249c0,0.125,0.125,0.125,0.125,0.25c0.125,0.125,0.125,0.25,0.25,0.375
				c0,0.125,0.125,0.125,0.125,0.25l0,0l0,0c0.125,0.25,0.125,0.375,0.25,0.625c0.5-0.25,0.999-0.5,1.5-0.5c0.25,0,0.5,0,0.625,0
				s0.25,0,0.375,0s0.25,0,0.375,0.125c0.125,0,0.25,0,0.25,0.125c0.125,0,0.25,0.125,0.375,0.125c1.125,0.5,1.999,1.5,2.25,2.749
				l0,0c0,0.125,0,0.125,0,0.25c0,0.25,0,0.625,0,0.875c-0.875,0.375-1.75,0.999-2.375,1.749c-3.624-0.5-6.998,1.999-7.498,5.623
				c-0.25,1.375,0,2.624,0.5,3.749c-2.249-0.25-4.374-0.5-6.248-0.875l0,0C136.951,159.962,136.826,159.837,136.826,159.712z
				 M166.566,152.465c-0.624-2.625-2.624-4.624-5.498-5.124c-0.875-0.125-1.75-0.125-2.625,0.125c-0.125-0.375-0.25-0.875-0.25-1.25
				c0-2.125,1.75-3.874,3.874-3.874c0.625,0,1.125,0.125,1.625,0.375l1.124,0.5l0.751-1c0.624-0.875,1.499-1.25,2.623-1.25
				c1,0,1.875,0.375,2.5,1.125l0.75,0.875l1-0.375c0.375-0.125,0.75-0.25,1.25-0.25c1.75,0,3.249,1.5,3.249,3.249
				c0,0.125,0,0.25,0,0.375c-0.5-0.125-1.125-0.25-1.625-0.25c-0.75,0-1.374,0.125-1.999,0.375c-2,0.625-3.499,2.374-4.125,4.373
				C168.066,150.84,167.191,151.59,166.566,152.465z M162.192,130.722c0.375-2.124,2.25-3.624,4.499-3.249
				c1.499,0.25,2.75,1.375,3.124,2.874l0.25,1.125h1.124c0.25,0,0.5,0,0.625,0c0.75,0.125,1.374,0.375,1.999,0.75
				c-2.124,1.125-3.374,3.374-3.249,5.873l0,0c-0.75-0.375-1.625-0.5-2.499-0.5c-0.375,0-0.75,0-1.125,0.125
				c-0.125-0.125-0.25-0.125-0.375-0.25c-0.375-2.875-2.124-5.249-4.624-6.498C162.192,131.097,162.192,130.972,162.192,130.722z
				 M147.947,136.845l1.25-0.375l-0.25-1.375c0-0.25-0.125-0.5-0.125-0.75c0-2.124,1.75-3.874,3.874-3.874
				c1.5,0,2.875,0.875,3.499,2.25l0.5,1l1.124-0.125c0.25,0,0.5,0,0.625,0c2.75,0,5.123,2.249,5.123,5.123v0.75
				c-0.499-0.125-1-0.25-1.5-0.25c-3.874,0-6.997,3.124-6.997,6.998c0,0.125,0,0.25,0,0.375c-1.125-2.374-3.624-4.124-6.373-4.124
				c-0.125,0-0.375,0-0.5,0c-0.625-0.75-1.5-1.375-2.375-1.75c-0.125-0.25-0.125-0.625-0.125-1
				C145.823,138.469,146.573,137.22,147.947,136.845z M132.703,135.595c0.375-0.125,0.75-0.25,1.25-0.25c0.125,0,0.375,0,0.5,0
				l1.25,0.125l0.375-1.25c0.375-1,0.999-1.75,1.999-2c0.875-0.25,1.875-0.25,2.75,0.25l1,0.625l0.875-0.75
				c0.375-0.25,0.624-0.5,1.124-0.625c0.875-0.25,1.75-0.125,2.5,0.25c-0.25,0.75-0.375,1.5-0.375,2.25l0,0
				c-1.875,1.125-3.124,3.124-3.124,5.373c0,0.125,0,0.25,0,0.375c-0.25,0-0.375,0-0.625,0c-2.499,0.375-4.499,1.875-5.498,4
				c-0.25,0.124-0.625,0.25-0.875,0.374c-0.5-0.499-1-0.874-1.625-1.124v-0.125h-0.25c-0.5-0.25-1.125-0.375-1.624-0.5
				c-0.875-0.5-1.625-1.25-1.875-2.25C129.454,138.469,130.578,136.22,132.703,135.595z M119.207,153.589
				c0-0.25,0-0.625,0.125-0.875c-1.874-0.375-3.249-1.875-3.249-3.874c0-1.5,0.875-2.749,2.125-3.499
				c0.375-0.25,0.875-0.375,1.375-0.375c-0.125-0.25-0.25-0.5-0.25-0.749c0-0.25-0.125-0.5-0.125-0.875
				c0-2.125,1.75-3.874,3.874-3.874c2.125,0,3.874,1.75,3.874,3.874c0,0.875-0.375,1.749-0.875,2.374
				c0.375,0.125,0.75,0.25,1.125,0.375s0.625,0.375,0.875,0.625c0.749-0.75,1.624-1.125,2.749-1.125c0.875,0,1.625,0.25,2.374,0.75
				c-1.124,1.5-1.749,3.249-1.499,5.249c0.125,1.125,0.5,2.125,1.124,2.999c-0.125,0.25-0.125,0.5-0.249,0.75
				c-0.625,1.125-1.875,1.875-3.375,1.875c-0.375,0-0.625,0-0.875-0.125c-0.625-0.125-1.124-0.375-1.624-0.75
				c-0.25-0.25-0.375-0.375-0.625-0.625c-0.125,0.25-0.375,0.5-0.625,0.625c-0.25,0.25-0.625,0.375-0.875,0.5l0,0
				c-2.374-0.75-4.124-1.625-5.373-2.374C119.332,154.339,119.207,153.964,119.207,153.589z M134.202,225.189l-14.62-63.479
				c2.874,1.25,6.248,2.25,9.872,3.124l10.122,63.104C136.577,226.939,134.702,226.064,134.202,225.189z M142.824,228.689
				l-10.122-63.229c3.124,0.625,6.498,1.125,9.872,1.5l5.998,62.729C146.448,229.438,144.574,229.062,142.824,228.689z
				 M151.696,230.188l-5.998-62.729c3.249,0.25,6.373,0.5,9.372,0.625l1.999,62.479
				C155.195,230.438,153.445,230.314,151.696,230.188z M165.567,230.688c-0.875,0-1.75,0-2.625,0s-1.749,0-2.624,0l-2-62.479
				c1.625,0,3.25,0.125,4.624,0.125s3,0,4.624-0.125L165.567,230.688z M168.565,157.088h0.125v-1.375
				c0-1.125,0.75-2.124,1.749-2.499c0.125,0,0.125,0,0.25-0.125l1.125-0.25l0.125-1.125c0.124-1.25,1-2.375,2.25-2.75
				c0.374-0.125,0.75-0.125,1-0.125c1.374,0,2.75,0.875,3.124,2.249l0.25,0.875l0.875,0.125c1.374,0.25,2.499,1.25,2.999,2.624
				c0.75,2.125-0.375,4.374-2.5,5.124c-0.375,0.25-1,0.25-1.624,0.25l-1.25-0.125l-0.374,1.25c0,0.125-0.126,0.25-0.126,0.375
				c-2.624,0.25-5.248,0.375-8.122,0.375c0.25-0.5,0.375-1,0.499-1.625C168.94,159.212,168.94,158.088,168.565,157.088z
				 M168.691,230.562l1.999-62.479c3-0.125,6.123-0.375,9.373-0.625l-5.873,62.729C172.439,230.314,170.689,230.438,168.691,230.562
				z M177.312,229.812l5.999-62.729c3.374-0.375,6.622-0.875,9.872-1.5l-10.123,63.229
				C181.312,229.062,179.438,229.438,177.312,229.812z M191.683,225.189c-0.5,0.75-2.374,1.75-5.373,2.625l10.122-63.104
				c3.624-0.875,6.998-1.874,9.871-3.124L191.683,225.189z"/>
		</g>
	</g>
</g>
<g id="Capa_2">
</g>
</svg>
